<?xml version="1.0" encoding="UTF-8" standalone="no"?>
<!-- Created with Inkscape (http://www.inkscape.org/) -->

<svg
   width="512"
   height="546.19672"
   viewBox="0 0 135.46667 144.51454"
   version="1.1"
   id="svg1227"
   inkscape:version="1.1.2 (0a00cf5339, 2022-02-04)"
   sodipodi:docname="logo_clean.svg"
   xmlns:inkscape="http://www.inkscape.org/namespaces/inkscape"
   xmlns:sodipodi="http://sodipodi.sourceforge.net/DTD/sodipodi-0.dtd"
   xmlns:xlink="http://www.w3.org/1999/xlink"
   xmlns="http://www.w3.org/2000/svg"
   xmlns:svg="http://www.w3.org/2000/svg">
  <sodipodi:namedview
     id="namedview1229"
     pagecolor="#505050"
     bordercolor="#ffffff"
     borderopacity="1"
     inkscape:pageshadow="0"
     inkscape:pageopacity="0"
     inkscape:pagecheckerboard="1"
     inkscape:document-units="px"
     showgrid="false"
     inkscape:snap-bbox="true"
     inkscape:bbox-paths="true"
     inkscape:bbox-nodes="true"
     inkscape:snap-bbox-edge-midpoints="true"
     inkscape:snap-bbox-midpoints="true"
     inkscape:object-paths="true"
     inkscape:snap-intersection-paths="true"
     inkscape:snap-smooth-nodes="true"
     inkscape:snap-midpoints="true"
     inkscape:snap-object-midpoints="true"
     inkscape:snap-center="true"
     inkscape:snap-text-baseline="true"
     inkscape:snap-page="true"
     inkscape:snap-global="false"
     inkscape:zoom="2.8284271"
     inkscape:cx="241.12341"
     inkscape:cy="265.16504"
     inkscape:window-width="3840"
     inkscape:window-height="2118"
     inkscape:window-x="0"
     inkscape:window-y="0"
     inkscape:window-maximized="1"
     inkscape:current-layer="layer5"
     showguides="true"
     inkscape:guide-bbox="true"
     fit-margin-top="0"
     fit-margin-left="0"
     fit-margin-right="0"
     fit-margin-bottom="0"
     units="px" />
  <defs
     id="defs1224">
    <linearGradient
       inkscape:collect="always"
       xlink:href="#media-dark"
       id="linearGradient96428"
       gradientUnits="userSpaceOnUse"
       gradientTransform="matrix(1.6073821,0,0,0.80513432,-2009.5797,-218.30909)"
       x1="1297.4017"
       y1="446.52237"
       x2="1297.4017"
       y2="273.33926" />
    <linearGradient
       inkscape:collect="always"
       id="media-dark">
      <stop
         style="stop-color:#020613;stop-opacity:1"
         offset="0"
         id="stop305514" />
      <stop
         style="stop-color:#332a39;stop-opacity:1"
         offset="1"
         id="stop305516" />
    </linearGradient>
    <linearGradient
       inkscape:collect="always"
       id="linearGradient4191">
      <stop
         style="stop-color:#0a2b34;stop-opacity:1"
         offset="0"
         id="stop4187" />
      <stop
         style="stop-color:#0d0313;stop-opacity:1"
         offset="1"
         id="stop4189" />
    </linearGradient>
    <rect
       x="67.523682"
       y="445.07007"
       width="419.15463"
       height="89.581978"
       id="rect339001" />
    <rect
       x="67.523682"
       y="445.07007"
       width="419.15463"
       height="89.581978"
       id="rect344939" />
    <linearGradient
       inkscape:collect="always"
       xlink:href="#linearGradient4191"
       id="linearGradient2204"
       gradientUnits="userSpaceOnUse"
       gradientTransform="matrix(1.607382,0,0,0.80513429,-2145.0463,-362.82325)"
       x1="1297.4017"
       y1="446.52237"
       x2="1297.4017"
       y2="273.33926" />
    <rect
       x="67.523682"
       y="445.07007"
       width="419.15463"
       height="89.581978"
       id="rect344939-3" />
  </defs>
  <g
     inkscape:groupmode="layer"
     id="layer2"
     inkscape:label="background">
    <g
       inkscape:groupmode="layer"
       id="layer3"
       inkscape:label="light - simple"
       style="display:none">
      <rect
         style="fill:#1f1c2a;fill-opacity:1;stroke:none;stroke-width:2.01249;stroke-linecap:round;stroke-linejoin:bevel;stroke-miterlimit:4;stroke-dasharray:none;stroke-opacity:1"
         id="rect232100-3"
         width="135.46666"
         height="144.51454"
         x="0"
         y="0"
         inkscape:export-filename="/home/betalars/Development/congress/bridging-bubbles-design/Logo/rect232100.png"
         inkscape:export-xdpi="192.80841"
         inkscape:export-ydpi="192.80841" />
    </g>
    <g
       inkscape:groupmode="layer"
       id="layer4"
       inkscape:label="light - gradient"
       style="display:inline">
      <rect
         style="fill:url(#linearGradient96428);fill-opacity:1;stroke-width:3.4557;stroke-linecap:round;stroke-linejoin:round;stroke-dashoffset:3.96851"
         id="rect140689-4"
         width="135.46666"
         height="144.51454"
         x="0"
         y="0"
         inkscape:export-filename="/home/betalars/Development/congress/bridging-bubbles-design/Logo/DiVOC-bridging-bubbles-logo.png"
         inkscape:export-xdpi="520.19202"
         inkscape:export-ydpi="520.19202" />
    </g>
    <g
       inkscape:groupmode="layer"
       id="layer6"
       inkscape:label="dark - simple"
       style="display:none">
      <rect
         style="display:inline;fill:#0b1a26;fill-opacity:1;stroke-width:7.13848;stroke-linecap:round;stroke-linejoin:round;stroke-dashoffset:3.96851"
         id="rect128638-5-6"
         width="135.46666"
         height="144.51454"
         x="-135.46666"
         y="-144.51454"
         inkscape:export-filename="/home/betalars/Development/congress/bridging-bubbles-design/draft/metabals_background.png"
         inkscape:export-xdpi="237.57231"
         inkscape:export-ydpi="237.57231"
         transform="scale(-1)" />
    </g>
    <g
       inkscape:groupmode="layer"
       id="layer5"
       inkscape:label="dark - gradient"
       style="display:none">
      <rect
         style="fill:url(#linearGradient2204);fill-opacity:1;stroke-width:7.13848;stroke-linecap:round;stroke-linejoin:round;stroke-dashoffset:3.96851"
         id="rect128638-5"
         width="135.46666"
         height="144.51454"
         x="-135.46666"
         y="-144.51454"
         inkscape:export-filename="/home/betalars/Development/congress/bridging-bubbles-design/draft/metabals_background.png"
         inkscape:export-xdpi="237.57231"
         inkscape:export-ydpi="237.57231"
         transform="scale(-1)" />
    </g>
  </g>
  <g
     inkscape:groupmode="layer"
     id="layer8"
     inkscape:label="text"
     style="display:inline">
    <g
       inkscape:groupmode="layer"
       id="layer15"
       inkscape:label="big text"
       style="display:inline">
      <g
         inkscape:groupmode="layer"
         id="layer10"
         inkscape:label="sub headline"
         style="display:inline">
        <g
           id="g96474"
           transform="matrix(2.7093333,0,0,2.7093333,-42.99426,-370.67014)">
          <g
             id="g5341">
            <g
               aria-label="ブリッジ"
               id="text140697-5"
               style="font-weight:bold;font-size:4.91365px;line-height:1.25;font-family:'Noto Sans JP';-inkscape-font-specification:'Noto Sans JP Bold';letter-spacing:-0.264583px;fill:none;stroke:#62c1a6;stroke-width:0.158;stroke-linejoin:round">
              <path
                 d="m 48.771263,178.00253 -0.486451,0.19654 c 0.137582,0.18672 0.284992,0.46189 0.388178,0.66335 l 0.486452,-0.20638 c -0.08845,-0.16706 -0.260424,-0.46679 -0.388179,-0.65351 z m -0.171977,1.07609 -0.353783,-0.22603 0.176891,-0.0737 c -0.08353,-0.17689 -0.235855,-0.45205 -0.368523,-0.6486 l -0.481538,0.19655 c 0.08353,0.13267 0.16215,0.27025 0.235855,0.40783 -0.09336,0.01 -0.186719,0.01 -0.250596,0.01 -0.304646,0 -1.74926,0 -2.16692,0 -0.16215,0 -0.486451,-0.0246 -0.638774,-0.0442 v 0.84023 c 0.127755,-0.01 0.398005,-0.0246 0.638774,-0.0246 0.41766,0 1.85736,0 2.162006,0 -0.06388,0.39309 -0.226028,0.87955 -0.540501,1.26772 -0.388179,0.48154 -0.943421,0.91394 -1.931065,1.13506 l 0.648602,0.71248 c 0.864802,-0.28008 1.557627,-0.78619 1.999856,-1.38074 0.422574,-0.56998 0.624033,-1.31686 0.741961,-1.77874 0.02948,-0.1081 0.07371,-0.28499 0.127755,-0.39309 z"
                 style="font-weight:900;-inkscape-font-specification:'Noto Sans JP Heavy'"
                 id="path5147" />
              <path
                 d="m 52.983015,178.43984 h -0.899197 c 0.01965,0.14741 0.03439,0.31448 0.03439,0.53068 0,0.23585 0,0.73704 0,1.01712 0,0.67809 -0.06879,1.02696 -0.398006,1.37582 -0.294819,0.30465 -0.678083,0.48646 -1.189103,0.59947 l 0.624034,0.65843 c 0.358696,-0.11302 0.874629,-0.36361 1.203844,-0.70757 0.373437,-0.39309 0.604379,-0.88445 0.604379,-1.8721 0,-0.27516 0,-0.78618 0,-1.07117 0,-0.2162 0.0098,-0.38327 0.01965,-0.53068 z m -2.275019,0.0442 h -0.859889 c 0.01474,0.12284 0.01965,0.29481 0.01965,0.38817 0,0.25551 0,1.34634 0,1.66573 0,0.15232 -0.01965,0.36361 -0.02457,0.46188 h 0.864803 c -0.0098,-0.12775 -0.01966,-0.33412 -0.01966,-0.45697 0,-0.31447 0,-1.41513 0,-1.67064 0,-0.17689 0.0098,-0.26533 0.01966,-0.38817 z"
                 style="font-weight:900;-inkscape-font-specification:'Noto Sans JP Heavy'"
                 id="path5149" />
              <path
                 d="m 56.153074,179.33413 -0.707566,0.23094 c 0.132669,0.27516 0.339042,0.85497 0.407833,1.10066 l 0.712479,-0.24569 c -0.0737,-0.23094 -0.314473,-0.86971 -0.412746,-1.08591 z m 1.832791,0.40292 -0.840234,-0.27025 c -0.04422,0.60929 -0.275164,1.27754 -0.599465,1.68538 -0.407833,0.51593 -1.125226,0.88937 -1.646073,1.02204 l 0.624034,0.63877 c 0.589638,-0.22603 1.208757,-0.65351 1.665727,-1.25298 0.324301,-0.42257 0.530674,-0.92377 0.658429,-1.39548 0.0344,-0.11792 0.06879,-0.23585 0.137582,-0.42748 z m -2.972758,-0.13759 -0.717393,0.25551 c 0.132669,0.23586 0.368524,0.87955 0.452056,1.14488 l 0.72722,-0.27025 c -0.09827,-0.28499 -0.324301,-0.85497 -0.461883,-1.13014 z"
                 style="font-weight:900;-inkscape-font-specification:'Noto Sans JP Heavy'"
                 id="path5151" />
              <path
                 d="m 61.883144,178.46932 -0.491365,0.20146 c 0.191632,0.27025 0.27025,0.43241 0.427487,0.77145 l 0.506106,-0.2162 c -0.1081,-0.22112 -0.294819,-0.53559 -0.442228,-0.75671 z m 0.697738,-0.24076 -0.501192,0.20637 c 0.191632,0.26042 0.284991,0.40292 0.456969,0.74196 l 0.501192,-0.22111 c -0.117927,-0.21129 -0.294819,-0.51594 -0.456969,-0.72722 z m -2.849917,0.13266 -0.432401,0.65843 c 0.343955,0.19164 0.845148,0.51102 1.139967,0.70757 l 0.442228,-0.65843 c -0.280078,-0.19163 -0.805839,-0.52085 -1.149794,-0.70757 z m -1.007298,3.47395 0.447142,0.78619 c 0.422574,-0.0688 1.14488,-0.3243 1.646073,-0.60438 0.815666,-0.4668 1.518317,-1.081 1.990028,-1.77383 l -0.45697,-0.81566 c -0.388178,0.70756 -1.095744,1.40039 -1.940891,1.86718 -0.555243,0.29974 -1.13014,0.44715 -1.685382,0.5405 z m 0.240769,-2.34381 -0.432402,0.65843 c 0.34887,0.18672 0.845148,0.51102 1.144881,0.7174 l 0.437315,-0.66826 c -0.275165,-0.19163 -0.796012,-0.52085 -1.149794,-0.70757 z"
                 style="font-weight:900;-inkscape-font-specification:'Noto Sans JP Heavy'"
                 id="path5153" />
            </g>
            <g
               aria-label="bridging"
               id="text141205-9"
               style="font-size:6.89877px;line-height:1.25;font-family:'Andale Mono';-inkscape-font-specification:'Andale Mono';fill:#62c1a6;stroke-width:0.0900601">
              <path
                 d="m 21.002591,181.44843 q -0.469116,0 -0.772662,-0.0483 -0.296647,-0.0483 -0.462217,-0.18627 -0.165571,-0.13797 -0.22766,-0.40702 -0.06209,-0.26906 -0.06209,-0.71748 l -0.0069,-2.15241 h 1.021018 v 0.74507 q 0.03449,0 0.11728,0 0.08968,-0.007 0.200064,-0.007 0.117279,-0.007 0.241457,-0.007 0.131076,-0.007 0.241457,-0.007 0.531205,0 0.820953,0.13108 0.289749,0.13107 0.400129,0.44152 0.117279,0.30354 0.117279,0.83475 0,0.47601 -0.09658,0.75196 -0.09658,0.27596 -0.296647,0.41393 -0.200064,0.13108 -0.510509,0.17247 -0.303546,0.0414 -0.724371,0.0414 z m 0.0138,-0.545 q 0.248356,0 0.365635,-0.0552 0.124178,-0.0621 0.16557,-0.24836 0.04829,-0.18626 0.04829,-0.57949 0,-0.31735 -0.05519,-0.48982 -0.05519,-0.17246 -0.186266,-0.24145 -0.124178,-0.069 -0.351838,-0.069 -0.05519,0 -0.131076,0 -0.07589,0 -0.151773,0.007 -0.07589,0 -0.137976,0 -0.05519,0 -0.08968,0 v 1.00032 q 0,0.22076 0.0207,0.35874 0.0207,0.13107 0.07589,0.20006 0.05519,0.069 0.151773,0.0966 0.103482,0.0207 0.275951,0.0207 z"
                 style="font-weight:bold;font-family:Genos;-inkscape-font-specification:'Genos Bold'"
                 id="path5156" />
              <path
                 d="m 24.203619,181.42084 h -0.745067 q -0.151773,0 -0.22076,-0.0759 -0.06899,-0.0759 -0.06899,-0.30354 v -2.23521 q 0.193166,-0.0483 0.5588,-0.10348 0.372534,-0.0552 0.834751,-0.0552 0.482914,0 0.758865,0.0552 0.28285,0.0552 0.413926,0.17247 0.131077,0.11038 0.165571,0.28975 0.04139,0.17247 0.04139,0.42082 h -0.986524 v -0.0966 q 0,-0.16557 -0.06209,-0.24146 -0.05519,-0.0759 -0.137975,-0.0966 -0.08279,-0.0207 -0.172469,-0.0207 -0.137976,0 -0.241457,0.0276 -0.09658,0.0276 -0.137976,0.0828 z"
                 style="font-weight:bold;font-family:Genos;-inkscape-font-specification:'Genos Bold'"
                 id="path5158" />
              <path
                 d="m 27.163187,181.44843 q -0.462217,0 -0.641585,-0.17937 -0.179368,-0.17936 -0.179368,-0.58639 l 0.0069,-2.01444 h 1.027916 v 1.97305 q 0,0.21386 0.06209,0.31044 0.06899,0.0897 0.220761,0.0897 0.08968,0 0.151773,-0.0138 0.06209,-0.0138 0.07589,-0.0207 v 0.37943 q -0.02759,0.007 -0.103481,0.0207 -0.07589,0.0138 -0.220761,0.0276 -0.144874,0.0138 -0.400129,0.0138 z m -0.289748,-3.11134 q -0.241457,0 -0.344938,-0.0621 -0.103482,-0.0621 -0.103482,-0.22766 0,-0.16557 0.103482,-0.22766 0.11038,-0.069 0.358736,-0.069 0.234558,0.007 0.331141,0.069 0.103481,0.0621 0.09658,0.22766 0,0.16557 -0.09658,0.22766 -0.08968,0.0621 -0.344939,0.0621 z"
                 style="font-weight:bold;font-family:Genos;-inkscape-font-specification:'Genos Bold'"
                 id="path5160" />
              <path
                 d="m 28.116035,180.04108 q 0,-0.5588 0.16557,-0.86234 0.165571,-0.31045 0.469117,-0.42083 0.310444,-0.11728 0.72437,-0.11728 0.137976,0 0.289749,0.0138 0.158671,0.0138 0.303546,0.0414 0.151773,0.0207 0.262153,0.0621 0.117279,0.0345 0.179368,0.0828 l -0.248356,0.0966 v -1.00032 h 1.021018 l -0.0069,2.09722 q 0,0.46912 -0.08278,0.75197 -0.08279,0.27595 -0.275951,0.42083 -0.186266,0.13797 -0.510509,0.18626 -0.317343,0.0414 -0.786459,0.0414 -0.434623,0 -0.724371,-0.0552 -0.289749,-0.0552 -0.462218,-0.20696 -0.16557,-0.15177 -0.241457,-0.42082 -0.07589,-0.26906 -0.07589,-0.71058 z m 1.552223,0.86235 q 0.186267,0 0.303546,-0.0345 0.117279,-0.0345 0.179368,-0.11728 0.06209,-0.0828 0.08279,-0.22766 0.02759,-0.14488 0.02759,-0.37254 l -0.0069,-0.91753 q -0.04139,0 -0.117279,0 -0.06899,-0.007 -0.151773,-0.007 -0.07589,-0.007 -0.151773,-0.007 -0.262153,0 -0.413926,0.069 -0.144874,0.0621 -0.206963,0.24145 -0.06209,0.17247 -0.06209,0.52431 0,0.35874 0.04829,0.53811 0.05519,0.17936 0.172469,0.24835 0.117279,0.0621 0.296647,0.0621 z"
                 style="font-weight:bold;font-family:Genos;-inkscape-font-specification:'Genos Bold'"
                 id="path5162" />
              <path
                 d="m 33.172835,182.24869 q -0.289749,0 -0.524307,-0.0138 -0.227659,-0.0138 -0.386331,-0.0621 -0.158672,-0.0414 -0.248356,-0.12417 -0.08278,-0.0759 -0.08278,-0.20697 0,-0.0414 0,-0.11038 0,-0.069 0,-0.0966 0.06899,0.0345 0.248356,0.069 0.186266,0.0414 0.407027,0.0621 0.220761,0.0276 0.39323,0.0276 0.400129,0 0.600193,-0.11038 0.200064,-0.10348 0.262153,-0.33804 0.06209,-0.24146 0.02759,-0.61399 l 0.117279,0.0138 q -0.07589,0.20696 -0.200064,0.32424 -0.117279,0.11728 -0.324242,0.17247 -0.206963,0.0483 -0.524307,0.0483 -0.434622,0 -0.703674,-0.10348 -0.262153,-0.11038 -0.386331,-0.37943 -0.117279,-0.26906 -0.117279,-0.76577 0,-0.42772 0.08279,-0.69677 0.08968,-0.27595 0.289748,-0.42773 0.200065,-0.15177 0.531206,-0.20696 0.338039,-0.0552 0.841649,-0.0552 0.151773,0 0.372534,0.0138 0.220761,0.007 0.441521,0.0276 0.22766,0.0138 0.400129,0.0276 0.172469,0.0138 0.227659,0.0207 -0.0069,0.0207 -0.0138,0.0966 0,0.0759 0,0.17937 0,0.0966 0,0.20006 v 1.64881 q 0,0.5588 -0.186267,0.85544 -0.179368,0.29665 -0.5588,0.40703 -0.379433,0.11728 -0.986524,0.11728 z m 0.117279,-1.53153 q 0.151773,0 0.282849,-0.0414 0.137976,-0.0483 0.220761,-0.17247 0.08279,-0.12418 0.08968,-0.35184 v -0.92443 q -0.05519,-0.007 -0.213862,-0.0138 -0.158672,-0.0138 -0.33804,-0.0138 -0.213862,0 -0.338039,0.0621 -0.11728,0.0552 -0.17247,0.22076 -0.04829,0.16557 -0.04829,0.48292 0,0.30354 0.05519,0.46911 0.05519,0.16557 0.165571,0.22766 0.117279,0.0552 0.296647,0.0552 z"
                 style="font-weight:bold;font-family:Genos;-inkscape-font-specification:'Genos Bold'"
                 id="path5164" />
              <path
                 d="m 36.291076,181.44843 q -0.462217,0 -0.641586,-0.17937 -0.179368,-0.17936 -0.179368,-0.58639 l 0.0069,-2.01444 h 1.027917 v 1.97305 q 0,0.21386 0.06209,0.31044 0.06899,0.0897 0.220761,0.0897 0.08968,0 0.151772,-0.0138 0.06209,-0.0138 0.07589,-0.0207 v 0.37943 q -0.0276,0.007 -0.103482,0.0207 -0.07589,0.0138 -0.22076,0.0276 -0.144874,0.0138 -0.400129,0.0138 z m -0.289748,-3.11134 q -0.241457,0 -0.344939,-0.0621 -0.103481,-0.0621 -0.103481,-0.22766 0,-0.16557 0.103481,-0.22766 0.110381,-0.069 0.358736,-0.069 0.234558,0.007 0.331141,0.069 0.103482,0.0621 0.09658,0.22766 0,0.16557 -0.09658,0.22766 -0.08968,0.0621 -0.344938,0.0621 z"
                 style="font-weight:bold;font-family:Genos;-inkscape-font-specification:'Genos Bold'"
                 id="path5166" />
              <path
                 d="m 37.643235,181.42084 q -0.262154,0 -0.262154,-0.26905 v -2.31799 q 0.206963,-0.069 0.62089,-0.12418 0.413926,-0.0621 0.910637,-0.0621 0.531206,0 0.834751,0.0621 0.310445,0.0552 0.455319,0.20007 0.151773,0.13797 0.193166,0.37253 0.04829,0.23456 0.04829,0.58639 v 1.1659 q 0,0.15177 -0.0207,0.24145 -0.0207,0.0828 -0.11038,0.11728 -0.08279,0.0345 -0.262154,0.0345 l -0.627788,-0.007 v -1.79368 q 0,-0.22766 -0.137975,-0.32424 -0.137976,-0.0966 -0.372534,-0.0966 -0.08279,0 -0.179368,0.0207 -0.09658,0.0138 -0.186267,0.0414 -0.08279,0.0207 -0.137975,0.0621 v 2.09033 z"
                 style="font-weight:bold;font-family:Genos;-inkscape-font-specification:'Genos Bold'"
                 id="path5168" />
              <path
                 d="m 42.368895,182.24869 q -0.289749,0 -0.524307,-0.0138 -0.227659,-0.0138 -0.386331,-0.0621 -0.158672,-0.0414 -0.248356,-0.12417 -0.08279,-0.0759 -0.08279,-0.20697 0,-0.0414 0,-0.11038 0,-0.069 0,-0.0966 0.06899,0.0345 0.248356,0.069 0.186267,0.0414 0.407027,0.0621 0.220761,0.0276 0.39323,0.0276 0.400129,0 0.600193,-0.11038 0.200064,-0.10348 0.262153,-0.33804 0.06209,-0.24146 0.02759,-0.61399 l 0.11728,0.0138 q -0.07589,0.20696 -0.200065,0.32424 -0.117279,0.11728 -0.324242,0.17247 -0.206963,0.0483 -0.524306,0.0483 -0.434623,0 -0.703675,-0.10348 -0.262153,-0.11038 -0.386331,-0.37943 -0.117279,-0.26906 -0.117279,-0.76577 0,-0.42772 0.08278,-0.69677 0.08968,-0.27595 0.289748,-0.42773 0.200065,-0.15177 0.531206,-0.20696 0.338039,-0.0552 0.84165,-0.0552 0.151773,0 0.372533,0.0138 0.220761,0.007 0.441521,0.0276 0.22766,0.0138 0.400129,0.0276 0.172469,0.0138 0.22766,0.0207 -0.0069,0.0207 -0.0138,0.0966 0,0.0759 0,0.17937 0,0.0966 0,0.20006 v 1.64881 q 0,0.5588 -0.186267,0.85544 -0.179368,0.29665 -0.5588,0.40703 -0.379433,0.11728 -0.986524,0.11728 z m 0.117279,-1.53153 q 0.151773,0 0.282849,-0.0414 0.137976,-0.0483 0.220761,-0.17247 0.08279,-0.12418 0.08968,-0.35184 v -0.92443 q -0.05519,-0.007 -0.213862,-0.0138 -0.158672,-0.0138 -0.33804,-0.0138 -0.213861,0 -0.338039,0.0621 -0.117279,0.0552 -0.17247,0.22076 -0.04829,0.16557 -0.04829,0.48292 0,0.30354 0.05519,0.46911 0.05519,0.16557 0.165571,0.22766 0.117279,0.0552 0.296647,0.0552 z"
                 style="font-weight:bold;font-family:Genos;-inkscape-font-specification:'Genos Bold'"
                 id="path5170" />
            </g>
            <g
               aria-label="バブルス"
               id="text143139-0"
               style="font-weight:bold;font-size:4.91365px;line-height:1.25;font-family:'Noto Sans JP';-inkscape-font-specification:'Noto Sans JP Bold';letter-spacing:-0.264583px;fill:none;stroke:#62c1a6;stroke-width:0.158;stroke-linejoin:round">
              <path
                 d="m 24.299088,181.71697 -0.461883,0.18671 c 0.132668,0.19164 0.275164,0.48154 0.378351,0.683 l 0.466797,-0.19654 c -0.08845,-0.17198 -0.260424,-0.49137 -0.383265,-0.67317 z m 0.604379,-0.23586 -0.461883,0.18672 c 0.132668,0.18672 0.289905,0.47662 0.388178,0.67808 l 0.461883,-0.19654 c -0.08353,-0.16707 -0.260423,-0.48154 -0.388178,-0.66826 z m -3.601706,2.64846 c -0.171977,0.44714 -0.466796,0.98273 -0.771443,1.38073 l 0.840234,0.35379 c 0.245683,-0.35379 0.550329,-0.94342 0.722307,-1.43479 0.152323,-0.4324 0.334128,-1.07609 0.402919,-1.44461 0.01966,-0.11302 0.08845,-0.40784 0.132669,-0.56507 l -0.869716,-0.18181 c -0.05896,0.65843 -0.235855,1.32177 -0.45697,1.89176 z m 2.427343,-0.054 c 0.191633,0.53559 0.343956,1.13014 0.486452,1.75908 l 0.88937,-0.2899 c -0.137582,-0.51102 -0.398005,-1.31195 -0.560156,-1.73452 -0.171977,-0.44714 -0.520847,-1.24807 -0.732133,-1.64116 l -0.796012,0.25551 c 0.206374,0.37835 0.530674,1.13014 0.712479,1.65099 z"
                 style="font-weight:900;-inkscape-font-specification:'Noto Sans JP Heavy'"
                 id="path5173" />
              <path
                 d="m 29.532879,181.38775 -0.486451,0.19655 c 0.137582,0.18672 0.284992,0.46188 0.388178,0.66334 l 0.486452,-0.20637 c -0.08845,-0.16707 -0.260424,-0.4668 -0.388179,-0.65352 z m -0.171978,1.07609 -0.353782,-0.22603 0.176891,-0.0737 c -0.08353,-0.17689 -0.235855,-0.45206 -0.368524,-0.6486 l -0.481537,0.19654 c 0.08353,0.13267 0.16215,0.27025 0.235855,0.40783 -0.09336,0.01 -0.186719,0.01 -0.250596,0.01 -0.304647,0 -1.74926,0 -2.16692,0 -0.162151,0 -0.486451,-0.0246 -0.638775,-0.0442 v 0.84023 c 0.127755,-0.01 0.398006,-0.0246 0.638775,-0.0246 0.41766,0 1.85736,0 2.162006,0 -0.06388,0.39309 -0.226028,0.87954 -0.540502,1.26772 -0.388178,0.48153 -0.94342,0.91394 -1.931064,1.13505 l 0.648602,0.71248 c 0.864802,-0.28008 1.557627,-0.78618 1.999855,-1.38074 0.422574,-0.56998 0.624034,-1.31685 0.741962,-1.77874 0.02948,-0.1081 0.0737,-0.28499 0.127754,-0.39309 z"
                 style="font-weight:900;-inkscape-font-specification:'Noto Sans JP Heavy'"
                 id="path5175" />
              <path
                 d="m 32.137868,185.57418 0.496278,0.40783 c 0.05405,-0.0393 0.117928,-0.0983 0.235856,-0.16215 0.545415,-0.28007 1.262808,-0.82549 1.660813,-1.3316 l -0.456969,-0.65842 c -0.304647,0.4324 -0.722307,0.78618 -1.090831,0.9385 0,-0.38326 0,-1.97529 0,-2.41751 0,-0.24077 0.03931,-0.46189 0.03931,-0.46189 h -0.884457 c 0,0 0.04422,0.2162 0.04422,0.45697 0,0.44714 0,2.54036 0,2.82044 0,0.15232 -0.01966,0.30464 -0.04422,0.40783 z m -2.289761,-0.0983 0.72722,0.48154 c 0.427488,-0.38818 0.72722,-0.87463 0.879543,-1.44462 0.127755,-0.49628 0.142496,-1.52323 0.142496,-2.12761 0,-0.23585 0.03931,-0.49628 0.03931,-0.49628 h -0.874629 c 0.03439,0.13267 0.05405,0.27517 0.05405,0.50611 0,0.61421 -0.0049,1.51832 -0.142496,1.92124 -0.127755,0.38817 -0.378351,0.85006 -0.825493,1.15962 z"
                 style="font-weight:900;-inkscape-font-specification:'Noto Sans JP Heavy'"
                 id="path5177" />
              <path
                 d="m 38.565676,182.33117 -0.486451,-0.35869 c -0.113014,0.0393 -0.343956,0.0737 -0.589638,0.0737 -0.235856,0 -1.346341,0 -1.64116,0 -0.142495,0 -0.456969,-0.0147 -0.628947,-0.0393 v 0.84515 c 0.137582,-0.01 0.407833,-0.0393 0.628947,-0.0393 0.235856,0 1.307031,0 1.528146,0 -0.103187,0.31447 -0.368524,0.74687 -0.687911,1.11048 -0.437315,0.48646 -1.213672,1.09083 -2.009683,1.38074 l 0.61912,0.64369 c 0.643688,-0.30956 1.287376,-0.80584 1.803309,-1.34143 0.442229,0.42749 0.859889,0.8992 1.174363,1.34634 l 0.682997,-0.59455 c -0.270251,-0.33413 -0.859889,-0.95816 -1.336513,-1.37091 0.319387,-0.44223 0.579811,-0.93359 0.741961,-1.2972 0.05405,-0.12284 0.157237,-0.29482 0.20146,-0.3587 z"
                 style="font-weight:900;-inkscape-font-specification:'Noto Sans JP Heavy'"
                 id="path5179" />
            </g>
            <g
               aria-label="bubbles"
               id="text150488-8"
               style="font-size:6.89877px;line-height:1.25;font-family:'Andale Mono';-inkscape-font-specification:'Andale Mono';fill:#62c1a6;stroke-width:0.0900601">
              <path
                 d="m 40.937162,185.60311 q -0.469117,0 -0.772663,-0.0483 -0.296647,-0.0483 -0.462217,-0.18627 -0.165571,-0.13797 -0.227659,-0.40702 -0.06209,-0.26906 -0.06209,-0.71748 l -0.0069,-2.15241 h 1.021018 v 0.74506 q 0.03449,0 0.117279,0 0.08968,-0.007 0.200064,-0.007 0.117279,-0.007 0.241457,-0.007 0.131077,-0.007 0.241457,-0.007 0.531205,0 0.820954,0.13107 0.289748,0.13108 0.400128,0.44153 0.117279,0.30354 0.117279,0.83475 0,0.47601 -0.09658,0.75196 -0.09658,0.27595 -0.296647,0.41393 -0.200065,0.13108 -0.510509,0.17247 -0.303546,0.0414 -0.724371,0.0414 z m 0.0138,-0.545 q 0.248356,0 0.365635,-0.0552 0.124178,-0.0621 0.165571,-0.24836 0.04829,-0.18626 0.04829,-0.57949 0,-0.31735 -0.05519,-0.48982 -0.05519,-0.17247 -0.186267,-0.24145 -0.124178,-0.069 -0.351837,-0.069 -0.05519,0 -0.131077,0 -0.07589,0 -0.151773,0.007 -0.07589,0 -0.137975,0 -0.05519,0 -0.08968,0 v 1.00032 q 0,0.22076 0.0207,0.35873 0.0207,0.13108 0.07589,0.20007 0.05519,0.069 0.151772,0.0966 0.103482,0.0207 0.275951,0.0207 z"
                 style="font-weight:bold;font-family:Genos;-inkscape-font-specification:'Genos Bold'"
                 id="path5182" />
              <path
                 d="m 44.083,182.82291 v 1.78678 q 0,0.24835 0.117279,0.35184 0.124178,0.0966 0.39323,0.0966 0.282849,0 0.400128,-0.10348 0.117279,-0.11038 0.117279,-0.33804 v -1.79368 q 0.0069,0 0.08968,0 0.08279,0 0.186267,0 0.11038,-0.007 0.200064,-0.007 0.09658,0 0.11728,0 0.158671,0 0.255254,0.0207 0.09658,0.0138 0.137975,0.0828 0.04139,0.069 0.04139,0.24146 v 1.33836 q 0,0.41392 -0.124178,0.66228 -0.124178,0.24146 -0.462217,0.35184 -0.33804,0.10348 -0.979626,0.10348 -0.593294,0 -0.924435,-0.0828 -0.331141,-0.0897 -0.462217,-0.31734 -0.131077,-0.22766 -0.131077,-0.64159 v -1.41424 q 0,-0.20007 0.06899,-0.26906 0.06899,-0.0759 0.296647,-0.0759 0.16557,0 0.331141,0.007 0.16557,0 0.331141,0 z"
                 style="font-weight:bold;font-family:Genos;-inkscape-font-specification:'Genos Bold'"
                 id="path5184" />
              <path
                 d="m 48.236064,185.60311 q -0.469116,0 -0.772662,-0.0483 -0.296647,-0.0483 -0.462218,-0.18627 -0.16557,-0.13797 -0.227659,-0.40702 -0.06209,-0.26906 -0.06209,-0.71748 l -0.0069,-2.15241 h 1.021018 v 0.74506 q 0.03449,0 0.117279,0 0.08968,-0.007 0.200065,-0.007 0.117279,-0.007 0.241457,-0.007 0.131076,-0.007 0.241457,-0.007 0.531205,0 0.820953,0.13107 0.289749,0.13108 0.400129,0.44153 0.117279,0.30354 0.117279,0.83475 0,0.47601 -0.09658,0.75196 -0.09658,0.27595 -0.296647,0.41393 -0.200064,0.13108 -0.510509,0.17247 -0.303546,0.0414 -0.724371,0.0414 z m 0.0138,-0.545 q 0.248355,0 0.365635,-0.0552 0.124177,-0.0621 0.16557,-0.24836 0.04829,-0.18626 0.04829,-0.57949 0,-0.31735 -0.05519,-0.48982 -0.05519,-0.17247 -0.186267,-0.24145 -0.124177,-0.069 -0.351837,-0.069 -0.05519,0 -0.131076,0 -0.07589,0 -0.151773,0.007 -0.07589,0 -0.137976,0 -0.05519,0 -0.08968,0 v 1.00032 q 0,0.22076 0.0207,0.35873 0.0207,0.13108 0.07589,0.20007 0.05519,0.069 0.151773,0.0966 0.103482,0.0207 0.275951,0.0207 z"
                 style="font-weight:bold;font-family:Genos;-inkscape-font-specification:'Genos Bold'"
                 id="path5186" />
              <path
                 d="m 51.926905,185.60311 q -0.469116,0 -0.772662,-0.0483 -0.296647,-0.0483 -0.462218,-0.18627 -0.16557,-0.13797 -0.227659,-0.40702 -0.06209,-0.26906 -0.06209,-0.71748 l -0.0069,-2.15241 h 1.021018 v 0.74506 q 0.03449,0 0.117279,0 0.08968,-0.007 0.200064,-0.007 0.117279,-0.007 0.241457,-0.007 0.131077,-0.007 0.241457,-0.007 0.531206,0 0.820954,0.13107 0.289748,0.13108 0.400129,0.44153 0.117279,0.30354 0.117279,0.83475 0,0.47601 -0.09658,0.75196 -0.09658,0.27595 -0.296647,0.41393 -0.200065,0.13108 -0.510509,0.17247 -0.303546,0.0414 -0.724371,0.0414 z m 0.0138,-0.545 q 0.248356,0 0.365635,-0.0552 0.124178,-0.0621 0.165571,-0.24836 0.04829,-0.18626 0.04829,-0.57949 0,-0.31735 -0.05519,-0.48982 -0.05519,-0.17247 -0.186267,-0.24145 -0.124178,-0.069 -0.351837,-0.069 -0.05519,0 -0.131077,0 -0.07589,0 -0.151773,0.007 -0.07589,0 -0.137975,0 -0.05519,0 -0.08968,0 v 1.00032 q 0,0.22076 0.0207,0.35873 0.0207,0.13108 0.07589,0.20007 0.05519,0.069 0.151773,0.0966 0.103481,0.0207 0.27595,0.0207 z"
                 style="font-weight:bold;font-family:Genos;-inkscape-font-specification:'Genos Bold'"
                 id="path5188" />
              <path
                 d="m 54.996856,185.60311 q -0.482914,0 -0.696775,-0.15867 -0.213862,-0.16557 -0.213862,-0.5795 v -2.40077 q 0,-0.15177 0.02759,-0.23456 0.0276,-0.0828 0.11038,-0.11038 0.08279,-0.0276 0.241457,-0.0276 h 0.669181 q -0.0069,0.0207 -0.0207,0.15177 -0.0069,0.13108 -0.0069,0.28975 v 2.2145 q 0,0.24836 0.06209,0.35184 0.06209,0.0966 0.234558,0.0966 0.06209,0 0.131076,-0.0138 0.07589,-0.0138 0.08968,-0.0207 v 0.37943 q -0.04829,0.007 -0.179368,0.0345 -0.131076,0.0276 -0.44842,0.0276 z"
                 style="font-weight:bold;font-family:Genos;-inkscape-font-specification:'Genos Bold'"
                 id="path5190" />
              <path
                 d="m 57.446731,185.61691 q -0.482914,0 -0.793359,-0.0552 -0.310444,-0.0621 -0.489812,-0.20696 -0.179368,-0.14488 -0.255255,-0.40703 -0.07589,-0.26216 -0.07589,-0.68298 0,-0.5381 0.151773,-0.85545 0.151773,-0.31734 0.524306,-0.46222 0.379433,-0.14487 1.048613,-0.14487 0.524307,0 0.834751,0.11038 0.310445,0.11038 0.44842,0.34494 0.137976,0.23456 0.137976,0.60019 v 0.53121 H 57.0604 q 0,-0.14488 0.06209,-0.24146 0.06899,-0.10348 0.248355,-0.10348 h 0.689877 l -0.0069,-0.14488 q 0,-0.28284 -0.117279,-0.42082 -0.110381,-0.14487 -0.420825,-0.14487 -0.255255,0 -0.400129,0.0828 -0.137975,0.0759 -0.193166,0.27595 -0.04829,0.19317 -0.04829,0.5588 0,0.33114 0.06209,0.49671 0.06899,0.16557 0.241457,0.22766 0.172469,0.0552 0.489813,0.0552 0.117279,0 0.317343,-0.007 0.200064,-0.007 0.407027,-0.0138 0.213862,-0.0138 0.372534,-0.0207 0.16557,-0.0138 0.206963,-0.0276 v 0.12417 q 0,0.0966 -0.03449,0.20697 -0.02759,0.10348 -0.117279,0.17247 -0.124178,0.0966 -0.462218,0.12417 -0.33114,0.0276 -0.910637,0.0276 z"
                 style="font-weight:bold;font-family:Genos;-inkscape-font-specification:'Genos Bold'"
                 id="path5192" />
              <path
                 d="m 60.744342,185.60311 q -0.16557,0 -0.351837,-0.007 -0.186267,-0.007 -0.372534,-0.0276 -0.179368,-0.0207 -0.331141,-0.0621 -0.124177,-0.0276 -0.206963,-0.069 -0.07589,-0.0483 -0.117279,-0.17247 -0.03449,-0.13108 -0.03449,-0.40703 0.213862,0.0759 0.441522,0.12418 0.227659,0.0414 0.441521,0.0621 0.220761,0.0138 0.407027,0.0138 0.131077,0 0.28285,0 0.158672,-0.007 0.303546,-0.0345 0.144874,-0.0345 0.241457,-0.10348 0.09658,-0.0759 0.09658,-0.20696 0,-0.15867 -0.08279,-0.20696 -0.08278,-0.0483 -0.22076,-0.0483 h -0.78646 q -0.317343,0 -0.565699,-0.0345 -0.241457,-0.0345 -0.386331,-0.18627 -0.137976,-0.15867 -0.137976,-0.5312 0,-0.40703 0.200065,-0.60019 0.206963,-0.20007 0.586395,-0.26216 0.379432,-0.0621 0.910638,-0.0621 0.193165,0 0.44842,0.007 0.262153,0.007 0.455319,0.0345 0.213861,0.0207 0.33114,0.069 0.124178,0.0414 0.179368,0.13798 0.05519,0.0897 0.05519,0.28285 v 0.19316 q -0.04139,-0.069 -0.213862,-0.10348 -0.165571,-0.0414 -0.407028,-0.0552 -0.234558,-0.0138 -0.496711,-0.0138 -0.255255,0 -0.476015,0 -0.151773,0 -0.28285,0.0207 -0.124178,0.0138 -0.200064,0.0828 -0.07589,0.0621 -0.07589,0.20696 0,0.11038 0.04829,0.16557 0.04829,0.0483 0.131076,0.0621 0.08279,0.0138 0.186267,0.0138 h 0.876144 q 0.289748,0 0.510509,0.0552 0.220761,0.0483 0.33804,0.22076 0.117279,0.16557 0.117279,0.5243 0,0.41393 -0.234558,0.6071 -0.234559,0.19316 -0.648485,0.25525 -0.413926,0.0552 -0.958929,0.0552 z"
                 style="font-weight:bold;font-family:Genos;-inkscape-font-specification:'Genos Bold'"
                 id="path5194" />
            </g>
          </g>
        </g>
      </g>
      <g
         inkscape:groupmode="layer"
         id="layer9"
         inkscape:label="headline"
         style="display:inline">
        <path
           id="path2523"
           style="font-weight:bold;font-size:33.8307px;line-height:1.25;font-family:Genos;-inkscape-font-specification:'Genos Bold';fill:#ffebd8;stroke-width:1.6692"
           d="m 312.6582,345.00977 c -6.73417,0 -12.52983,0.46858 -17.38867,1.40625 -4.77359,0.93767 -8.73664,2.55782 -11.89062,4.85937 -3.06874,2.21631 -5.32822,5.28391 -6.77735,9.20508 -1.44912,3.83592 -2.17383,8.82346 -2.17383,14.96094 0,5.96698 0.68104,10.91087 2.04493,14.83203 1.44912,3.92118 3.66689,7.03245 6.65039,9.33398 3.06873,2.21632 6.99008,3.7928 11.76367,4.73047 4.77359,0.93768 10.56925,1.40625 17.38867,1.40625 6.73418,0 12.48813,-0.42491 17.26172,-1.27734 4.85883,-0.93768 8.82189,-2.51614 11.89062,-4.73242 3.06874,-2.30156 5.32822,-5.41281 6.77735,-9.33399 1.44912,-3.92116 2.17383,-8.90676 2.17383,-14.95898 0,-6.05223 -0.72471,-11.03977 -2.17383,-14.96094 -1.36388,-3.92117 -3.5797,-6.98877 -6.64844,-9.20508 -2.9835,-2.30155 -6.86313,-3.9217 -11.63672,-4.85937 -4.77359,-0.93767 -10.52754,-1.40625 -17.26172,-1.40625 z m 87.71485,0.38281 c -8.01283,0 -14.74565,0.46858 -20.20117,1.40625 -5.3703,0.93767 -9.67484,2.51611 -12.91407,4.73242 -3.23922,2.21631 -5.54236,5.28391 -6.90625,9.20508 -1.36388,3.83592 -2.04492,8.73809 -2.04492,14.70508 0,6.05222 0.63933,11.03782 1.91797,14.95898 1.27864,3.83594 3.45274,6.86379 6.52148,9.08008 3.15398,2.21631 7.37317,3.79279 12.65821,4.73047 5.3703,0.85243 12.10508,1.27734 20.20312,1.27734 3.40972,0 6.69171,-0.0853 9.8457,-0.25586 3.23921,-0.17051 6.47757,-0.51004 9.7168,-1.02148 3.66544,-0.51145 6.09567,-1.40691 7.28906,-2.68555 1.1934,-1.3639 1.78907,-3.06943 1.78907,-5.11523 v -6.00977 c -3.32448,0.76719 -6.47746,1.40652 -9.46094,1.91797 -2.89827,0.51147 -5.71169,0.93833 -8.43945,1.2793 -2.64252,0.25572 -5.15813,0.38281 -7.54493,0.38281 -5.62602,0 -10.14304,-0.4686 -13.55273,-1.40625 -3.40971,-0.93768 -5.83994,-2.72662 -7.28906,-5.36914 -1.44912,-2.64255 -2.17383,-6.52217 -2.17383,-11.63672 0,-5.37029 0.72471,-9.37701 2.17383,-12.01953 1.44912,-2.64253 3.75033,-4.38976 6.90429,-5.24219 3.23924,-0.85243 7.37498,-1.27734 12.4043,-1.27734 2.47204,0 5.32718,0.16879 8.56641,0.50976 3.23923,0.25573 6.47759,0.6826 9.71679,1.2793 3.32448,0.5967 6.22328,1.36506 8.69532,2.30273 v -6.52148 c 0,-2.21631 -0.55396,-3.96355 -1.66211,-5.24219 -1.10816,-1.27864 -3.45301,-2.13238 -7.03321,-2.55859 -3.32444,-0.51146 -6.52109,-0.851 -9.58984,-1.02149 -2.98348,-0.25572 -6.18013,-0.38476 -9.58984,-0.38476 z M 107.2793,345.9043 c -2.64253,0 -5.28521,0.0437 -7.927738,0.1289 h -7.160156 c -3.239224,0.0852 -5.455039,0.76629 -6.648437,2.04492 -1.193396,1.27865 -1.791016,3.40909 -1.791016,6.39258 v 50.37891 h 7.416016 8.695312 c 3.068739,0.0852 6.350749,0.12891 9.845699,0.12891 h 10.9961 c 6.30796,0 11.72042,-0.34151 16.23828,-1.02344 4.51786,-0.7672 8.22675,-2.1749 11.125,-4.2207 2.98349,-2.04584 5.1576,-4.98635 6.52148,-8.82227 1.44913,-3.92118 2.17383,-8.99214 2.17383,-15.21484 0,-6.22272 -0.63933,-11.25197 -1.91797,-15.08789 -1.27864,-3.92117 -3.282,-6.90535 -6.00976,-8.95118 -2.72777,-2.13106 -6.2242,-3.58047 -10.48633,-4.34765 -4.26214,-0.85243 -9.41847,-1.32101 -15.4707,-1.40625 h -7.54493 z m 67.64062,0.1289 c -2.21631,0 -3.83646,0.25417 -4.85937,0.76563 -0.93767,0.51146 -1.53529,1.27982 -1.79102,2.30273 -0.17048,0.93767 -0.25391,2.13095 -0.25391,3.58008 v 3.95117 h 20.96876 V 346.0332 Z m 23.27149,0 20.45703,49.35547 c 1.53436,3.49496 3.2816,5.9669 5.24218,7.41602 1.96059,1.36388 4.90306,2.04492 8.82422,2.04492 h 13.42578 L 270.94531,346.0332 H 255.3457 l -15.72656,40.91602 h -1.02344 c -0.68194,0 -1.32127,-0.25611 -1.91797,-0.76758 -0.59669,-0.51145 -1.10894,-1.40691 -1.53515,-2.68555 L 221.20703,346.0332 Z m 114.21289,9.97266 c 2.81301,0 5.24128,0.29783 7.28711,0.89453 2.13106,0.51146 3.83659,1.49228 5.11523,2.94141 1.36388,1.36388 2.34471,3.32357 2.94141,5.88086 0.68194,2.47203 1.02148,5.71234 1.02148,9.71875 0,3.92115 -0.33954,7.15949 -1.02148,9.71679 -0.5967,2.47204 -1.57753,4.43369 -2.94141,5.88282 -1.27864,1.44912 -2.98417,2.47167 -5.11523,3.06836 -2.04583,0.51147 -4.4741,0.76757 -7.28711,0.76757 -2.89826,0 -5.41386,-0.2561 -7.54492,-0.76757 -2.04583,-0.59669 -3.70769,-1.61924 -4.98633,-3.06836 -1.27864,-1.44913 -2.25947,-3.41078 -2.94141,-5.88282 -0.68194,-2.5573 -1.02344,-5.79564 -1.02344,-9.71679 0,-4.00641 0.3415,-7.24672 1.02344,-9.71875 0.68194,-2.55729 1.66277,-4.51698 2.94141,-5.88086 1.27864,-1.44913 2.9405,-2.42995 4.98633,-2.94141 2.13106,-0.5967 4.64666,-0.89453 7.54492,-0.89453 z m -198.22071,0.51172 h 3.96485 c 4.34738,0 7.71477,0.51029 10.10156,1.5332 2.47204,0.93767 4.21927,2.77028 5.24219,5.49805 1.10815,2.72777 1.66211,6.77815 1.66211,12.14844 0,3.75066 -0.29979,6.86194 -0.89649,9.33398 -0.5967,2.47206 -1.53386,4.39003 -2.8125,5.75391 -1.27864,1.36388 -2.98221,2.30105 -5.11328,2.8125 -2.13107,0.51147 -4.68838,0.76757 -7.67187,0.76757 h -3.32618 -3.96289 c -1.27864,-0.0852 -2.51558,-0.1289 -3.70898,-0.1289 h -2.93945 v -33.3711 c 0,-1.10815 0.0854,-1.96189 0.25586,-2.55859 0.17048,-0.5967 0.38294,-1.10699 0.63867,-1.5332 1.10815,-0.0852 2.42852,-0.12891 3.96289,-0.12891 1.53437,-0.0852 3.06915,-0.12695 4.60351,-0.12695 z m 60.73633,6.33203 c -2.21624,0 -3.83639,0.25609 -4.85937,0.76758 -0.93707,0.51145 -1.53308,1.27986 -1.78907,2.30273 -0.0847,0.45622 -0.1472,0.97349 -0.18945,1.55078 h -0.0664 v 2.0293 9.26562 16.81836 4.41016 4.85547 h 20.96876 v -4.85547 -32.52344 -4.62109 z"
           transform="scale(0.26458333)" />
      </g>
    </g>
    <g
       inkscape:groupmode="layer"
       id="layer16"
       inkscape:label="small text"
       style="display:none">
      <g
         inkscape:groupmode="layer"
         id="layer18"
         inkscape:label="sub headline">
        <path
           id="path18047"
           style="font-weight:900;font-size:3.90761px;line-height:1.25;font-family:'Noto Sans JP';-inkscape-font-specification:'Noto Sans JP Heavy';letter-spacing:-0.210411px;display:inline;fill:#62c1a6;stroke-width:0.464707;stroke-linejoin:round"
           d="m 18.760787,108.56298 -1.42957,0.57911 c 0.404646,0.54915 0.837498,1.35879 1.140981,1.95133 l 1.431485,-0.60777 c -0.259997,-0.49137 -0.767128,-1.37349 -1.142896,-1.92267 z m 82.042013,0 -1.429588,0.57911 c 0.404646,0.54915 0.837498,1.35879 1.140988,1.95133 l 1.43149,-0.60777 c -0.26,-0.49137 -0.76714,-1.37349 -1.14289,-1.92267 z m -13.615382,0.27521 -1.35886,0.54851 c 0.39018,0.54917 0.85387,1.40276 1.142899,1.99529 l 1.358861,-0.5791 c -0.245574,-0.49136 -0.767143,-1.41553 -1.1429,-1.9647 z m -70.536583,0.1013 -1.416204,0.57717 c 0.245574,0.3902 0.476967,0.79558 0.693763,1.20023 -0.274791,0.0289 -0.547932,0.0289 -0.735811,0.0289 H 8.8187416 c -0.4769079,0 -1.4306868,-0.0721 -1.8787065,-0.12997 v 2.47118 c 0.3757568,-0.0289 1.1705713,-0.0726 1.8787065,-0.0726 h 6.3585564 c -0.187879,1.15615 -0.665226,2.58704 -1.590117,3.72874 -1.141731,1.41629 -2.773337,2.68852 -5.678174,3.33886 l 1.9073764,2.09467 c 2.5435336,-0.82375 4.5800656,-2.3107 5.8807616,-4.05938 1.242845,-1.67641 1.835709,-3.87439 2.182581,-5.23287 0.0865,-0.31794 0.217502,-0.83832 0.376511,-1.15627 l -1.0416,-0.66318 0.519846,-0.21787 c -0.245573,-0.52027 -0.693468,-1.3293 -1.083648,-1.90737 z m 82.041995,0 -1.416193,0.57717 c 0.245574,0.3902 0.476997,0.79558 0.69376,1.20023 -0.274422,0.0289 -0.547929,0.0289 -0.735807,0.0289 h -6.373846 c -0.476907,0 -1.430724,-0.0721 -1.878714,-0.12997 v 2.47118 c 0.375757,-0.0289 1.170542,-0.0726 1.878714,-0.0726 h 6.35855 c -0.187879,1.15615 -0.665187,2.58704 -1.590117,3.72874 -1.141695,1.41629 -2.773338,2.68852 -5.678164,3.33886 l 1.907377,2.09467 c 2.54353,-0.82375 4.580065,-2.3107 5.88075,-4.05938 1.242845,-1.67641 1.83576,-3.87439 2.182584,-5.23287 0.08653,-0.31794 0.217466,-0.83832 0.376516,-1.15627 l -1.041608,-0.66318 0.521761,-0.21787 c -0.245573,-0.52027 -0.695345,-1.3293 -1.085563,-1.90737 z m -39.315254,0.28858 -1.473533,0.60775 c 0.563595,0.76596 0.837779,1.18541 1.343564,2.1826 l 1.473537,-0.65173 c -0.34691,-0.62142 -0.86666,-1.5172 -1.343568,-2.13862 z m 26.032423,0.30386 -1.358857,0.54852 c 0.390218,0.56362 0.810744,1.41613 1.114227,2.00866 l 1.372244,-0.57718 c -0.259997,-0.50581 -0.766307,-1.44528 -1.127614,-1.98 z m -34.41494,0.086 -1.27095,1.93796 c 1.01163,0.56362 2.485154,1.50321 3.352239,2.08129 l 1.301528,-1.93796 c -0.823736,-0.56362 -2.371192,-1.53212 -3.382817,-2.08129 z m -22.490975,0.23125 c 0.05773,0.43356 0.1013,0.92557 0.1013,1.56146 v 2.99103 c 0,1.99435 -0.203302,3.02183 -1.171559,4.0479 -0.86713,0.89603 -1.992559,1.42974 -3.495586,1.76213 l 1.834748,1.93605 c 1.055007,-0.33242 2.571263,-1.06967 3.539544,-2.0813 1.098346,-1.15615 1.779324,-2.60133 1.779324,-5.50616 v -3.14965 c 0,-0.63589 0.02921,-1.1279 0.05736,-1.56146 z m 28.820861,0.088 -1.444862,0.59248 c 0.563634,0.79483 0.795117,1.2714 1.257572,2.26858 l 1.488818,-0.63644 c -0.318062,-0.65033 -0.867958,-1.57428 -1.301528,-2.22462 z m -35.395381,0.0421 c 0.04323,0.36129 0.05732,0.86829 0.05732,1.14288 v 4.89841 c 0,0.44801 -0.05821,1.06983 -0.07259,1.35886 h 2.543808 c -0.02959,-0.37576 -0.05736,-0.98228 -0.05736,-1.34357 v -4.9137 c 0,-0.52027 0.02922,-0.78159 0.05736,-1.14288 z m 82.489206,0.0592 c 0.10134,0.3902 0.15863,0.80958 0.15863,1.48883 0,1.80648 -0.014,4.46444 -0.41855,5.64949 -0.37576,1.14171 -1.11212,2.50102 -2.42722,3.4115 l 2.13864,1.41619 c 1.2573,-1.1417 2.13782,-2.57218 2.58585,-4.2486 0.37575,-1.45963 0.42045,-4.48159 0.42045,-6.25917 0,-0.69368 0.11468,-1.45824 0.11468,-1.45824 z m 4.04602,0 c 0,0 0.12996,0.63543 0.12996,1.34357 v 8.2946 c 0,0.44801 -0.0575,0.89675 -0.12996,1.20023 l 1.46016,1.20024 c 0.15902,-0.11561 0.34698,-0.28991 0.69375,-0.4778 1.60415,-0.82376 3.71445,-2.42751 4.88503,-3.91605 l -1.34358,-1.93606 c -0.896,1.27177 -2.12497,2.31176 -3.20888,2.75977 v -7.11157 c 0,-0.70815 0.11464,-1.35695 0.11464,-1.35695 z m 17.476,0.24465 c -0.33249,0.11561 -1.01278,0.21787 -1.73537,0.21787 h -4.82578 c -0.4191,0 -1.34425,-0.0443 -1.85004,-0.11657 v 2.48646 c 0.40464,-0.0289 1.19971,-0.11657 1.85004,-0.11657 h 4.49322 c -0.30364,0.92492 -1.08265,2.19679 -2.02204,3.26624 -1.28619,1.43074 -3.57015,3.20863 -5.91134,4.06129 l 1.82137,1.894 c 1.89322,-0.91047 3.78612,-2.37137 5.30358,-3.94662 1.30068,1.2573 2.52861,2.64487 3.45353,3.96 l 2.00867,-1.74875 c -0.79486,-0.98273 -2.52949,-2.81676 -3.93133,-4.03072 0.93936,-1.30066 1.70567,-2.74721 2.18258,-3.81666 0.15904,-0.3613 0.46241,-0.86711 0.59248,-1.05498 z m -41.962277,0.57909 -2.34122,0.75111 c 0.606984,1.11278 1.56184,3.32444 2.096586,4.85634 0.563599,1.57526 1.012392,3.32378 1.43149,5.17362 l 2.614524,-0.85243 c -0.404685,-1.503 -1.170552,-3.86003 -1.647461,-5.1029 -0.505822,-1.31511 -1.532469,-3.66962 -2.153919,-4.82577 z m -6.039381,0.2026 c -0.173455,1.93656 -0.695158,3.88707 -1.345483,5.56349 -0.505834,1.31513 -1.372589,2.8907 -2.268592,4.06131 l 2.471179,1.03969 c 0.722588,-1.04055 1.619423,-2.77474 2.125245,-4.21992 0.448035,-1.27177 0.982605,-3.16471 1.184947,-4.2486 0.05773,-0.33238 0.259701,-1.20029 0.389888,-1.66275 z m -37.467133,1.4162 -2.081294,0.67848 c 0.390222,0.80929 0.997901,2.51496 1.20023,3.23756 l 2.096586,-0.72243 c -0.216726,-0.67924 -0.926485,-2.55773 -1.215522,-3.19361 z m 18.227103,0.27331 c -1.141735,2.08107 -3.223025,4.11986 -5.708756,5.49278 -1.633055,0.88157 -3.324576,1.31553 -4.957642,1.59012 l 1.314905,2.31064 c 1.242886,-0.20234 3.368867,-0.95366 4.842976,-1.77741 2.398994,-1.37293 4.464706,-3.17794 5.852081,-5.21566 z m -15.306788,0.11657 c -0.130184,1.79204 -0.810219,3.75623 -1.764031,4.95575 -1.199507,1.51744 -3.309157,2.61611 -4.841072,3.00631 l 1.834751,1.8787 c 1.734218,-0.66478 3.556313,-1.92165 4.90031,-3.68478 0.953856,-1.24287 1.56033,-2.71596 1.93605,-4.10335 0.101336,-0.34683 0.202783,-0.69394 0.40517,-1.25756 z m 5.349446,0.0726 -1.272858,1.93604 c 1.026083,0.54918 2.485946,1.50299 3.367525,2.10996 l 1.286246,-1.96667 c -0.809287,-0.56361 -2.34037,-1.53021 -3.380913,-2.07938 z m -11.622004,0.31724 -2.10996,0.7511 c 0.390217,0.6937 1.084506,2.58713 1.330198,3.36754 l 2.138633,-0.79512 c -0.288845,-0.83822 -0.954189,-2.51428 -1.358871,-3.32359 z m 30.403349,0.43384 c -1.08903,0.0278 -1.972361,0.92665 -1.972361,2.02206 0,1.11279 0.91115,2.02395 2.02396,2.02395 1.112766,0 2.022049,-0.91116 2.022049,-2.02395 0,-1.1128 -0.909283,-2.02206 -2.022049,-2.02206 -0.01738,0 -0.0344,-4.4e-4 -0.05156,0 z" />
      </g>
      <g
         inkscape:groupmode="layer"
         id="layer17"
         inkscape:label="headline">
        <path
           id="path17981"
           style="font-weight:bold;font-size:9.15115px;line-height:1.25;font-family:Genos;-inkscape-font-specification:'Genos Bold';display:inline;fill:#ffebd8;stroke-width:0.441825"
           d="m 82.730501,91.283849 c -1.782474,0 -3.316061,0.122564 -4.602159,0.370764 -1.263519,0.248236 -2.31292,0.677039 -3.147748,1.286245 -0.81227,0.586629 -1.411044,1.398881 -1.794609,2.436773 -0.383575,1.015335 -0.57527,2.335447 -0.57527,3.960007 0,1.579402 0.179889,2.889622 0.540864,3.927502 0.383576,1.03789 0.97051,1.86007 1.760218,2.46927 0.812289,0.58664 1.849818,1.00362 3.113338,1.25183 1.263523,0.24821 2.799007,0.37269 4.604078,0.37269 1.782479,0 3.306154,-0.11269 4.569674,-0.33829 1.286105,-0.24821 2.333568,-0.66519 3.145828,-1.25184 0.812271,-0.6092 1.411045,-1.43329 1.79462,-2.47118 0.383567,-1.0379 0.57527,-2.35803 0.57527,-3.959996 0,-1.602008 -0.191688,-2.922117 -0.57527,-3.960008 -0.361038,-1.037891 -0.947955,-1.850144 -1.760214,-2.436772 -0.789707,-0.609207 -1.815423,-1.038028 -3.078946,-1.286246 -1.263543,-0.2482 -2.787195,-0.370764 -4.569674,-0.370764 z m 23.217229,0.101299 c -2.12092,0 -3.9035,0.124488 -5.34752,0.372683 -1.42147,0.2482 -2.559817,0.665198 -3.417227,1.25184 -0.857385,0.586639 -1.468008,1.39888 -1.829019,2.436772 -0.361001,1.015354 -0.540864,2.311796 -0.540864,3.891207 0,1.60197 0.169941,2.9221 0.508377,3.95999 0.33844,1.01534 0.913552,1.81765 1.725811,2.4043 0.834828,0.58664 1.951432,1.00364 3.350332,1.25184 1.42147,0.2256 3.20404,0.33829 5.34753,0.33829 0.90253,0 1.77014,-0.0237 2.60497,-0.0688 0.8574,-0.0451 1.71508,-0.1341 2.57247,-0.26946 0.9702,-0.13537 1.61444,-0.37253 1.93031,-0.71096 0.31588,-0.36105 0.47397,-0.81162 0.47397,-1.35314 v -1.59203 c -0.87994,0.20308 -1.71587,0.37302 -2.50558,0.50838 -0.76714,0.13537 -1.51217,0.24806 -2.23419,0.33829 -0.69946,0.0675 -1.36353,0.1013 -1.99528,0.1013 -1.48916,0 -2.68671,-0.12448 -3.58923,-0.37269 -0.90254,-0.24819 -1.54484,-0.72246 -1.9284,-1.42192 -0.38358,-0.69945 -0.57527,-1.72516 -0.57527,-3.078944 -1e-5,-1.421489 0.19168,-2.482706 0.57527,-3.182143 0.38356,-0.699495 0.99225,-1.161931 1.8271,-1.38753 0.85738,-0.225602 1.95221,-0.338292 3.28344,-0.338292 0.65432,0 1.40926,0.04541 2.26668,0.135694 0.85738,0.06754 1.71509,0.180223 2.57247,0.338292 0.87998,0.157922 1.64868,0.361445 2.30299,0.609673 v -1.725811 c 0,-0.586639 -0.14818,-1.049083 -0.44148,-1.38753 -0.29335,-0.338588 -0.91385,-0.563891 -1.86151,-0.676566 -0.87995,-0.135361 -1.7258,-0.226268 -2.53807,-0.271388 -0.78971,-0.06754 -1.63553,-0.101299 -2.53808,-0.101299 z m -77.57935,0.135694 c -0.699438,0 -1.39903,0.01221 -2.098495,0.03439 h -1.895909 c -0.85741,0.02256 -1.444344,0.202413 -1.760213,0.540864 -0.31588,0.338441 -0.473972,0.90171 -0.473972,1.691416 v 13.336348 h 1.964709 2.301078 c 0.812271,0.0222 1.6799,0.0326 2.604964,0.0326 h 2.910755 c 1.669685,0 3.10245,-0.0909 4.298288,-0.2714 1.195835,-0.20307 2.17801,-0.57462 2.945161,-1.11614 0.789703,-0.54149 1.3648,-1.32013 1.725808,-2.33549 0.383578,-1.03789 0.57527,-2.37979 0.57527,-4.02689 0,-1.647113 -0.169904,-2.977156 -0.508378,-3.992494 -0.33844,-1.037892 -0.868112,-1.828368 -1.590117,-2.36989 -0.72203,-0.563976 -1.646898,-0.947367 -2.775061,-1.150542 -1.128161,-0.225971 -2.493723,-0.350497 -4.095701,-0.372683 H 30.50128 Z m 17.90411,0.03255 c -0.586643,0 -1.015493,0.0692 -1.286235,0.204484 -0.248088,0.135361 -0.40618,0.336998 -0.473982,0.607768 -0.04512,0.248163 -0.06879,0.564397 -0.06879,0.947947 v 1.04734 h 5.552032 v -2.807546 z m 6.15979,0 5.41442,13.064938 c 0.406139,0.92509 0.868575,1.57923 1.38753,1.96281 0.518936,0.361 1.297574,0.54086 2.335488,0.54086 h 3.552918 l 6.566879,-15.568611 h -4.130096 l -4.162595,10.830751 h -0.269465 c -0.180408,0 -0.350348,-0.0672 -0.508373,-0.2026 -0.157811,-0.13535 -0.294171,-0.3725 -0.40709,-0.71096 l -3.688612,-9.917195 z m 30.22942,2.641275 c 0.744587,0 1.388814,0.07896 1.930314,0.236993 0.564076,0.135398 1.014673,0.394289 1.353128,0.777857 0.360927,0.361 0.619814,0.880729 0.777854,1.55763 0.180482,0.654324 0.271388,1.510081 0.271388,2.570566 0,1.037887 -0.0909,1.895577 -0.271388,2.572457 -0.157959,0.65435 -0.416843,1.17406 -0.777854,1.55763 -0.33844,0.38346 -0.789052,0.65421 -1.353128,0.81226 -0.5415,0.13537 -1.185727,0.2026 -1.930314,0.2026 -0.76715,0 -1.43312,-0.0672 -1.997203,-0.2026 -0.541512,-0.15791 -0.980278,-0.42868 -1.318721,-0.81226 -0.338441,-0.38357 -0.597376,-0.90328 -0.777858,-1.55763 -0.180482,-0.67688 -0.271388,-1.53457 -0.271388,-2.572457 0,-1.060485 0.0909,-1.916242 0.271388,-2.570566 0.180519,-0.676901 0.439432,-1.196641 0.777858,-1.55763 0.33844,-0.383597 0.777209,-0.642496 1.318721,-0.777857 0.564083,-0.158033 1.230053,-0.236993 1.997203,-0.236993 z m -52.46621,0.133771 h 1.049248 c 1.150719,0 2.042006,0.136322 2.673765,0.407089 0.654317,0.248199 1.116764,0.732393 1.387531,1.454423 0.293319,0.722019 0.43958,1.79317 0.43958,3.214629 0,0.992781 -0.07896,1.816861 -0.236994,2.471171 -0.157957,0.65435 -0.405003,1.16224 -0.743458,1.52323 -0.33844,0.36104 -0.790961,0.61 -1.355035,0.74536 -0.564054,0.13537 -1.239969,0.2026 -2.029694,0.2026 H 30.50128 29.452039 c -0.338441,-0.0222 -0.666488,-0.0345 -0.982361,-0.0345 h -0.777857 v -8.833543 c 0,-0.293209 0.02182,-0.518523 0.06694,-0.676566 0.04512,-0.158069 0.102297,-0.294429 0.170089,-0.407089 0.29332,-0.02219 0.643114,-0.03255 1.049245,-0.03255 0.406128,-0.02219 0.811303,-0.03439 1.217431,-0.03439 z m 15.96806,1.678035 c -0.53144,0.0078 -0.923493,0.07563 -1.177295,0.202598 -0.248199,0.135361 -0.406294,0.33892 -0.473982,0.609677 -0.02219,0.120456 -0.03846,0.256668 -0.0497,0.408987 h -0.01923 v 0.537047 2.453978 4.45117 1.16775 1.28432 h 5.552034 v -1.28439 -8.60995 -1.22125 H 46.27235 c -0.03661,0 -0.07349,-5.29e-4 -0.108954,0 z" />
      </g>
    </g>
  </g>
  <g
     inkscape:groupmode="layer"
     id="layer7"
     inkscape:label="animal"
     style="display:inline">
    <g
       inkscape:groupmode="layer"
       id="layer14"
       inkscape:label="shark - simple"
       style="display:none">
      <g
         id="path7267-5-5" />
      <g
         id="g17646">
        <path
           id="circle232108-7"
           style="font-variation-settings:normal;fill:#ffebd8;fill-opacity:1;stroke:none;stroke-width:11.0612;stroke-linecap:butt;stroke-linejoin:miter;stroke-miterlimit:4;stroke-dasharray:none;stroke-dashoffset:0;stroke-opacity:1;stop-color:#000000"
           d="m 263.94727,36.519531 c -81.7338,7.5e-5 -147.99212,66.258389 -147.99219,147.992189 0.11607,4.47833 0.43539,8.94908 0.95703,13.39844 5.74599,21.32753 13.95331,35.5307 23.23242,46.13867 -10.20346,-19.46252 -15.58666,-41.08976 -15.69726,-63.06445 -7.8e-4,-75.83484 61.47571,-137.311319 137.31054,-137.310552 75.83408,3.02e-4 137.30935,61.476462 137.3086,137.310552 -0.0941,41.31464 -18.78614,80.39091 -50.89258,106.39257 15.60037,-6.30319 38.16504,-23.1263 51.4375,-44.1875 8.07001,-18.51318 12.2655,-38.4822 12.32812,-58.67773 -7e-5,-81.73379 -66.25842,-147.992103 -147.99218,-147.992189 z m -12.00391,11.625 c -66.73115,6.665772 -97.75972,49.929146 -106.84375,84.072269 12.5411,-15.7269 27.13481,-27.33328 40.66016,-29.13086 2.47394,-27.131749 33.03662,-47.699868 66.18359,-54.941409 z M 223,168.00195 c -13.2145,-0.0178 -22.80957,5.45156 -28.89453,10.56446 0.83795,3.99915 6.03384,4.03205 8.61133,3.20312 3.01691,-0.97096 4.28024,-4.82391 3.63476,-8.47656 1.81432,3.53253 5.32913,5.41442 8.60156,4.60351 2.7059,-0.67067 4.74796,-3.0684 5.30665,-6.23046 1.12966,3.69917 4.13913,6.12807 7.42773,5.99609 2.47382,-0.10016 4.73032,-1.64189 6.03516,-4.125 0.45185,2.39675 1.85373,4.31042 3.83593,5.24219 2.80814,1.31985 6.29342,0.45102 8.77539,-2.1875 -0.42898,2.95026 0.60352,5.67274 2.72657,7.19336 2.82658,2.02396 6.93484,1.47884 9.93945,-1.32032 -1.83663,3.80357 -1.07087,8.02204 1.83008,10.09961 1.46956,1.05245 3.34005,1.44042 5.27148,1.0918 -1.52247,2.39002 -1.73358,5.14428 -0.56445,7.35156 1.32128,2.49241 4.19351,3.89493 7.4375,3.63281 -1.61942,2.15911 -2.06039,4.74888 -1.18555,6.97657 1.29268,3.28932 5.13908,5.06248 9.24219,4.26172 -3.21625,2.26891 -4.58642,5.96972 -3.36328,9.08203 1.11027,2.82513 4.08168,4.50073 7.43945,4.45117 l 1.83594,8.67969 c 0,0 -29.38041,-38.37535 -56.50586,-46.48242 -12.96875,-3.87602 -30.56949,-3.27058 -36.8418,0.21874 -0.085,0.85605 -0.10603,1.66722 -0.082,2.44922 11.24627,-3.17032 18.529,-2.89394 19.5918,-2.82812 0.6206,0.0571 1.24337,0.1 1.89844,0.16992 43.44296,4.18004 76.39257,58.08008 76.39257,58.08008 0,0 -0.0124,-0.24729 -0.043,-0.70899 -0.17027,-2.31711 -0.89851,-10.11048 -3.47461,-20.0039 0.01,-0.003 0.0195,-0.005 0.0293,-0.008 h 0.002 C 282.90207,209.26611 270.52653,180.72407 240.18164,170.89258 233.89521,168.85581 228.17089,168.00887 223,168.00195 Z m 97.30469,22.35157 c -0.17242,1.6e-4 -0.34489,0.006 -0.51953,0.0195 -2.79468,0.22159 -5.03752,2.16204 -6.41602,4.72265 -1.3785,2.56061 -2.02582,5.83302 -1.74805,9.33594 0.2778,3.50292 1.43243,6.63201 3.19727,8.94336 1.76483,2.31135 4.28541,3.87396 7.08008,3.65234 2.79466,-0.22159 5.03752,-2.16204 6.41601,-4.72265 1.37851,-2.56061 2.02582,-5.83302 1.74805,-9.33594 -0.27776,-3.50292 -1.43243,-6.63201 -3.19727,-8.94336 -1.65453,-2.16689 -3.97443,-3.67437 -6.56054,-3.67187 z m 0.008,3.49804 c 1.25885,-3.4e-4 2.58051,0.74234 3.77344,2.30469 1.03778,1.35915 1.8795,3.29244 2.27929,5.5293 -1.11922,-0.0818 -2.3582,0.36117 -3.35937,1.20117 -1.79659,1.50969 -2.32303,3.84019 -1.17578,5.20508 0.9047,1.07507 2.62093,1.25672 4.24414,0.44922 -0.22303,0.77762 -0.50549,1.48803 -0.83789,2.10546 -0.99391,1.84624 -2.28242,2.78689 -3.61524,2.89258 -1.33279,0.10568 -2.75098,-0.6206 -4.02343,-2.28711 -1.27246,-1.6665 -2.25095,-4.20326 -2.48047,-7.09765 -0.22953,-2.8944 0.33812,-5.54636 1.33203,-7.39258 0.99391,-1.84623 2.27853,-2.7947 3.61133,-2.90039 0.0833,-0.007 0.16804,-0.01 0.25195,-0.01 z m -138.13281,0.84961 c -23.54058,3.99652 -38.25359,12.97793 -40.50391,24.88477 -2.58554,14.06211 12.46984,30.51359 40.35547,44.09765 -8.07472,-7.00894 -11.78962,-14.20289 -10.70508,-20.73047 1.03646,-6.10343 6.22098,-11.31186 14.76953,-15.17578 -2.25186,-10.23004 -3.78867,-21.37322 -3.91601,-33.07617 z m 163.77148,36.92774 c -1.32633,9.38944 -2.93639,18.4631 -4.52148,26.5664 3.62057,4.80344 5.19278,9.6148 4.42773,14.15821 -0.48608,2.82098 -1.86443,5.47994 -4.10351,7.91601 11.8332,-4.74381 18.93732,-11.41625 20.53906,-19.29101 1.72736,-9.21039 -4.13085,-19.49239 -16.3418,-29.34961 z m -199.65625,41.99218 c 27.85137,36.91948 71.3623,58.73561 117.65235,58.88282 27.18643,-0.0683 53.67472,-7.64331 76.66211,-21.66016 -11.91494,1.21773 -24.85149,1.65532 -38.52344,1.25781 -13.03163,4.03482 -26.61331,6.16451 -40.32813,6.19141 -32.17292,-0.0749 -63.22785,-11.44209 -87.79883,-32.00391 -9.99327,-3.93811 -19.27251,-8.18506 -27.66406,-12.66797 z"
           transform="scale(0.26458333)" />
        <path
           id="path9288"
           style="font-variation-settings:normal;display:inline;fill:#62c1a6;fill-opacity:1;stroke:none;stroke-width:11.3124;stroke-linecap:butt;stroke-linejoin:miter;stroke-miterlimit:4;stroke-dasharray:none;stroke-dashoffset:0;stroke-opacity:1;stop-color:#000000"
           d="m 264.30859,89.628906 c -2.59436,0.03024 -5.14903,0.384539 -7.63086,1.115235 -11.70459,3.450179 -26.63558,5.583161 -47.21289,32.927739 -10.93947,16.3615 -14.07972,34.27051 -15.36718,54.89257 0.0905,-0.0759 0.19894,-0.15244 0.29101,-0.22851 0.002,-0.001 0.004,-0.002 0.006,-0.004 0.59527,-0.49243 1.22254,-0.98634 1.88281,-1.47851 0.006,-0.005 0.0114,-0.009 0.0176,-0.0137 0.006,-0.005 0.0132,-0.009 0.0195,-0.0137 0.14427,-0.10732 0.28818,-0.21527 0.43555,-0.32226 10e-4,-8.6e-4 0.003,-9.6e-4 0.004,-0.002 0.001,-8.2e-4 0.003,-9.5e-4 0.004,-0.002 0.78738,-0.57146 1.6143,-1.13893 2.49024,-1.69141 0.009,-0.006 0.0164,-0.0119 0.0254,-0.0176 0.006,-0.004 0.0116,-0.008 0.0176,-0.0117 0.0214,-0.0135 0.043,-0.0256 0.0644,-0.0391 0.9646,-0.60461 1.98319,-1.19167 3.05469,-1.75195 0.009,-0.005 0.0181,-0.0106 0.0273,-0.0156 0.008,-0.004 0.0157,-0.008 0.0234,-0.0117 1.08471,-0.5654 2.22363,-1.10404 3.41797,-1.60156 1.2028,-0.50106 2.46097,-0.96162 3.77539,-1.3711 1.31441,-0.40947 2.68488,-0.76743 4.11132,-1.0625 1.42406,-0.29457 2.90527,-0.52772 4.44141,-0.68555 0.006,-6.6e-4 0.013,-9.5e-4 0.0195,-0.002 0.7657,-0.0783 1.54428,-0.13761 2.33789,-0.17773 0.79766,-0.0403 1.60964,-0.0597 2.43555,-0.0586 1.29272,0.002 2.62039,0.0558 3.98242,0.16797 1.36204,0.1122 2.75783,0.28203 4.18946,0.51563 1.43161,0.2336 2.89891,0.53055 4.40039,0.89648 1.50147,0.36593 3.03776,0.80136 4.60937,1.31055 0.94828,0.30723 1.87946,0.63362 2.79297,0.97656 0.9135,0.34294 1.81007,0.70312 2.68945,1.08008 0.87938,0.37696 1.74199,0.77038 2.58789,1.17969 0.8459,0.4093 1.67521,0.83347 2.48828,1.27343 1.62614,0.87993 3.18685,1.82002 4.68555,2.8125 1.4987,0.99249 2.93412,2.03732 4.31055,3.12891 1.37643,1.09159 2.69378,2.22899 3.95312,3.40625 1.25934,1.17726 2.46195,2.39506 3.60938,3.64453 1.14742,1.24947 2.23862,2.53161 3.27929,3.83985 1.04069,1.30822 2.02963,2.64253 2.96876,3.99609 0.93911,1.35356 1.82912,2.72589 2.67187,4.11133 0.84275,1.38543 1.63909,2.78364 2.39063,4.1875 0.75152,1.40386 1.45753,2.81381 2.12304,4.22265 0.66551,1.40884 1.29035,2.81643 1.875,4.2168 0.58466,1.40037 1.1297,2.79343 1.63867,4.17187 0.50898,1.37846 0.98145,2.74285 1.41993,4.08594 0.43847,1.3431 0.84364,2.6647 1.21679,3.95899 0.37316,1.29428 0.71434,2.56094 1.02735,3.79297 h -0.002 c -0.01,0.003 -0.0195,0.005 -0.0293,0.008 0.64402,2.47335 1.17227,4.81456 1.60547,6.97265 v 0.002 c 0.433,2.15734 0.7706,4.13232 1.0332,5.86914 0.26268,1.73733 0.45151,3.23816 0.58398,4.44922 0.13247,1.21105 0.20939,2.13166 0.25196,2.71093 0.0305,0.4617 0.043,0.70899 0.043,0.70899 0,0 -0.51418,-0.84223 -1.5,-2.32422 -0.98581,-1.48199 -2.44421,-3.60289 -4.32812,-6.16211 -0.94196,-1.27961 -1.99059,-2.66955 -3.14063,-4.14258 -1.15003,-1.47302 -2.4009,-3.03064 -3.74804,-4.64648 -1.34715,-1.61584 -2.78898,-3.28999 -4.32227,-4.99805 -1.53329,-1.70806 -3.15676,-3.44953 -4.86523,-5.19922 -1.70847,-1.74969 -3.50231,-3.50732 -5.375,-5.24804 -1.87269,-1.74072 -3.82563,-3.46338 -5.85157,-5.14454 -1.01294,-0.84057 -2.04454,-1.67208 -3.09374,-2.48828 -1.04923,-0.8162 -2.11511,-1.6188 -3.19922,-2.40429 -1.08412,-0.7855 -2.18494,-1.5543 -3.30274,-2.30274 -1.1178,-0.74844 -2.25257,-1.47652 -3.40234,-2.18164 -1.14978,-0.70512 -2.31555,-1.38557 -3.4961,-2.04101 -1.18054,-0.65545 -2.37598,-1.28533 -3.58593,-1.88477 -1.20996,-0.59944 -2.43389,-1.16991 -3.67188,-1.70703 -1.23798,-0.53712 -2.48926,-1.0413 -3.7539,-1.50977 -2.5293,-0.93693 -5.11056,-1.72912 -7.73829,-2.35351 -1.31386,-0.3122 -2.64015,-0.58207 -3.97656,-0.80664 -1.33641,-0.22458 -2.68342,-0.40453 -4.04101,-0.53516 -0.65507,-0.0699 -1.27784,-0.11281 -1.89844,-0.16992 -0.13515,-0.008 -0.3754,-0.0197 -0.70703,-0.0273 -2.27633,-0.0526 -9.06859,0.0883 -18.88477,2.85546 0.40853,45.37807 24.00703,83.948 24.49805,85.2168 0,0 9.00009,3.14175 13.67773,3.93164 26.52727,4.47951 53.8477,7.36381 80.58789,4.41016 4.04127,-0.44639 7.78243,-1.70404 11.74024,-3.3086 0,0 8.53819,-33.5048 12.04687,-64.98437 3.5088,-31.47954 -2.27233,-73.0988 -20.91406,-97.71875 -12.46375,-16.4609 -32.68139,-32.391656 -50.8418,-32.195314 z m 51.67579,87.314454 c 3.76221,2.98755 7.77335,6.42402 10.84374,10.04297 7.72919,9.1101 7.29336,23.07539 3.51954,28.88672 -2.4422,3.76036 -8.28933,7.81452 -12.26172,10.33593 -15.05427,-12.80502 -15.12206,-29.38633 -2.10156,-49.26562 z m -206.17774,18.13281 c -7.37537,5.63618 -11.84724,12.17372 -13.222656,19.32813 -6.278411,34.7283 60.001366,75.73548 148.041016,91.59375 88.04011,15.85871 164.50167,0.56161 170.7832,-34.16602 1.60112,-8.91696 -1.61768,-18.59633 -9.45117,-28.39648 l -12.07226,19.9375 c -0.045,0.46707 -0.11242,0.93946 -0.17969,1.40429 -5.79269,30.50798 -73.68145,43.24797 -151.63867,28.45704 -77.95965,-14.79162 -136.46632,-51.51541 -130.67969,-82.0254 0.43115,-1.74929 0.52441,-1.70342 1.38672,-3.36132 -0.82413,-3.17458 -1.9797,-8.13033 -2.96485,-12.77149 z"
           transform="scale(0.26458333)" />
      </g>
    </g>
    <g
       inkscape:groupmode="layer"
       id="layer13"
       inkscape:label="shark - complex"
       style="display:none">
      <g
         id="g7458">
        <path
           id="path7267"
           style="font-variation-settings:normal;fill:#ffebd8;fill-opacity:1;stroke:none;stroke-width:17.5079;stroke-linecap:butt;stroke-linejoin:miter;stroke-miterlimit:4;stroke-dasharray:none;stroke-dashoffset:0;stroke-opacity:1;stop-color:#000000"
           d="m 263.94727,36.523438 a 147.83125,147.83125 0 0 0 -147.83008,147.830082 147.83125,147.83125 0 0 0 9.0332,50.67773 c 2.62778,3.35095 6.05004,6.97519 10.42383,10.7793 a 142.62219,142.62223 0 0 1 -0.0234,-0.041 126.22869,49.400189 10.626199 0 0 0.0996,0.10742 c 0.59539,0.51678 1.1412,1.02574 1.77344,1.54883 11.48467,9.50199 30.48261,18.28789 53.30273,25.49219 a 88.398739,34.595266 9.5621092 0 1 -20.16015,-27.59375 88.398739,34.595266 9.5621092 0 1 15.89453,-15.64844 c -4.21046,-11.26983 -7.69387,-23.48758 -9.22461,-35.86523 a 126.22869,49.400189 10.626199 0 0 -50.16406,28.69922 126.22869,49.400189 10.626199 0 0 -0.0508,2.62304 142.62219,142.62223 0 0 1 -6.98828,-43.42773 142.62219,142.62223 0 0 1 142.6211,-142.623049 142.62219,142.62223 0 0 1 142.62304,142.623049 142.62219,142.62223 0 0 1 -30.23046,87.7793 126.22869,49.400189 10.626199 0 0 0.15429,-0.41993 126.22869,49.400189 10.626199 0 0 -30.03125,-41.23437 c -1.52638,12.75352 -3.1725,24.5983 -4.75195,32.625 a 88.398739,34.595266 9.5621092 0 1 4.49023,14.23828 88.398739,34.595266 9.5621092 0 1 -16.80468,16.0332 c 6.20503,-0.33959 12.32669,-0.80102 18.2207,-1.53515 13.6048,-1.69456 25.80036,-8.23299 33.9375,-13.60938 A 147.83125,147.83125 0 0 0 411.7793,184.35352 147.83125,147.83125 0 0 0 263.94727,36.523438 Z m -13.72266,7.978515 c -67.9189,6.784403 -99.50045,50.817645 -108.74609,85.568357 12.76419,-16.0069 27.61679,-27.82117 41.38281,-29.65039 2.51786,-27.614512 33.62626,-48.54785 67.36328,-55.917967 z m -1.95117,81.888667 c 17.92703,11.21515 34.55195,22.68563 45.89062,65.74219 10.18557,38.67708 3.25421,83.42318 6.53711,82.79688 1.37533,-4.1689 4.44114,-45.03427 -0.63476,-76.3418 -6.1235,-37.76965 -26.29334,-69.79265 -51.79297,-72.19727 z m -20.89649,3.37891 c -3.19408,1.03385 -17.0768,5.56156 -19.89453,6.70899 -4.99897,9.13194 -9.07213,19.80242 -11.57226,32.20312 1.83234,-5.13812 8.25265,-22.49232 13.08789,-28.93555 7.59963,-4.5657 8.19964,-3.88411 18.3789,-9.97656 z M 223,168.00195 c -13.2145,-0.0176 -22.80957,5.45156 -28.89453,10.56446 0.83795,3.99915 6.03384,4.03205 8.61133,3.20312 3.01691,-0.97096 4.28024,-4.82391 3.63476,-8.47656 1.81432,3.53253 5.32912,5.41441 8.60156,4.60351 2.7059,-0.67067 4.74796,-3.0684 5.30665,-6.23046 1.12966,3.69917 4.13913,6.12807 7.42773,5.99609 2.47382,-0.10016 4.73032,-1.64189 6.03516,-4.125 0.45186,2.39675 1.85373,4.31042 3.83593,5.24219 2.80814,1.31985 6.29342,0.45102 8.77539,-2.1875 -0.42898,2.95026 0.60352,5.67274 2.72657,7.19336 2.82658,2.02397 6.93484,1.47884 9.93945,-1.32032 -1.83663,3.80357 -1.07087,8.02204 1.83008,10.09961 1.46956,1.05245 3.34005,1.44042 5.27148,1.0918 -1.52247,2.39002 -1.73358,5.14428 -0.56445,7.35156 1.32128,2.49241 4.19351,3.89493 7.4375,3.63281 -1.61942,2.1591 -2.06039,4.74888 -1.18555,6.97657 1.29268,3.28932 5.13908,5.06248 9.24219,4.26172 -3.21625,2.26892 -4.58646,5.96974 -3.36328,9.08203 1.34375,3.41922 5.4144,5.15434 9.5957,4.18554 l -0.32031,8.94532 c 0,0 -29.04543,-42.70074 -57.46875,-47.14649 -2.32854,-0.36472 -4.56599,-0.5147 -6.66602,-0.51758 l -0.002,0.002 c -3.78165,-0.004 -7.09665,0.46757 -9.70117,1.01953 0.6206,0.0571 1.24337,0.1 1.89844,0.16992 43.44296,4.18004 76.39257,58.08008 76.39257,58.08008 0,0 -0.0125,-0.24728 -0.043,-0.70899 -0.17028,-2.31711 -0.89851,-10.11048 -3.47461,-20.0039 0.01,-0.003 0.0195,-0.005 0.0293,-0.008 h 0.002 c -5.00794,-19.71232 -17.38359,-48.2543 -47.72848,-58.08579 -6.28643,-2.03677 -12.01075,-2.88372 -17.18164,-2.89063 z m -29.34375,18.91797 c -2.33139,48.48956 23.83811,91.23736 24.35547,92.57422 l 13.67773,3.93164 c -20.51625,-30.47229 -29.30591,-41.64186 -38.0332,-96.50586 z m 126.64844,3.4336 c -0.17241,1.6e-4 -0.34487,0.006 -0.51953,0.0195 -2.79467,0.22161 -5.03752,2.16204 -6.41602,4.72265 -1.3785,2.56061 -2.02582,5.83302 -1.74805,9.33594 0.27778,3.50292 1.43243,6.63201 3.19727,8.94336 1.76483,2.31135 4.28541,3.87395 7.08008,3.65234 2.79466,-0.22161 5.03752,-2.16204 6.41601,-4.72265 1.3785,-2.56061 2.02582,-5.83302 1.74805,-9.33594 -0.27777,-3.50292 -1.43243,-6.63201 -3.19727,-8.94336 -1.65453,-2.16689 -3.97443,-3.67437 -6.56054,-3.67187 z m 0.008,3.49804 c 1.25885,-3.4e-4 2.58051,0.74234 3.77344,2.30469 1.03778,1.35915 1.8795,3.29244 2.27929,5.5293 a 3.2281104,4.2486343 49.956699 0 0 -3.35937,1.20117 3.2281104,4.2486343 49.956699 0 0 -1.17578,5.20508 3.2281104,4.2486343 49.956699 0 0 4.24414,0.44922 c -0.22304,0.77764 -0.50549,1.48802 -0.83789,2.10546 -0.99391,1.84623 -2.28243,2.78689 -3.61524,2.89258 -1.3328,0.10569 -2.75097,-0.6206 -4.02343,-2.28711 -1.27246,-1.6665 -2.25095,-4.20326 -2.48047,-7.09765 -0.22952,-2.89439 0.33812,-5.54636 1.33203,-7.39258 0.99391,-1.84623 2.27853,-2.7947 3.61133,-2.90039 0.0833,-0.007 0.16803,-0.01 0.25195,-0.01 z M 154.68164,283.625 a 147.83125,147.83125 0 0 0 109.26563,48.56055 147.83125,147.83125 0 0 0 61.03125,-13.27539 131.67282,51.530783 9.5621092 0 1 -29.40625,1.34961 142.62219,142.62223 0 0 1 -32.91797,4.06835 142.62219,142.62223 0 0 1 -85.17578,-28.70117 131.67282,51.530783 9.5621092 0 1 -22.79688,-12.00195 z"
           transform="scale(0.26458333)" />
        <path
           id="path344905-7"
           style="font-variation-settings:normal;fill:#62c1a6;fill-opacity:1;stroke:none;stroke-width:17.5079;stroke-linecap:butt;stroke-linejoin:miter;stroke-miterlimit:4;stroke-dasharray:none;stroke-dashoffset:0;stroke-opacity:1;stop-color:#000000"
           d="m 264.30859,89.628906 c -2.59436,0.03024 -5.14903,0.384539 -7.63086,1.115235 -11.70459,3.450179 -26.63558,5.583187 -47.21289,32.927739 13.9868,-9.99806 24.00677,-23.31939 59.8125,-27.814458 16.34737,14.379738 36.10686,38.202618 45.22852,74.072268 0.56184,2.20932 1.05173,4.55631 1.47852,7.01367 3.76225,2.98755 7.7733,6.42402 10.84374,10.04297 7.72918,9.1101 7.29336,23.07539 3.51954,28.88672 -2.4422,3.76036 -8.28933,7.81452 -12.26172,10.33593 -0.96875,25.24041 -4.0269,49.83266 -5.8086,61.62696 3.86272,-0.42327 7.78243,-1.70404 11.74024,-3.3086 0,0 8.53819,-33.5048 12.04687,-64.98437 3.5088,-31.47954 -2.27233,-73.0988 -20.91406,-97.71875 C 302.68664,105.36332 282.469,89.43256 264.30859,89.628906 Z M 109.81641,197.60156 c -7.37527,5.6363 -11.847188,12.17405 -13.22266,19.32813 -6.278351,34.72868 60.00125,75.73542 148.04102,91.59375 88.03988,15.85844 164.50155,0.56357 170.7832,-34.16602 1.60184,-8.91674 -1.62085,-18.59617 -9.45313,-28.39648 l -12.07031,19.9375 c -0.0431,0.47191 -0.11436,0.93761 -0.18164,1.40234 -5.79258,30.50805 -73.68331,43.24818 -151.64062,28.45703 -77.95917,-14.79171 -136.46461,-51.51549 -130.67774,-82.02539 0.43041,-1.75113 0.52393,-1.70262 1.38477,-3.35937 -0.82366,-3.17435 -1.97708,-8.13 -2.96289,-12.77149 z"
           transform="scale(0.26458333)" />
      </g>
    </g>
    <g
       inkscape:groupmode="layer"
       id="layer12"
       inkscape:label="bunny - simple"
       style="display:none">
      <g
         id="g6910">
        <path
           id="circle232108"
           style="font-variation-settings:normal;fill:#ffebd8;fill-opacity:1;stroke:none;stroke-width:11.0612;stroke-linecap:butt;stroke-linejoin:miter;stroke-miterlimit:4;stroke-dasharray:none;stroke-dashoffset:0;stroke-opacity:1;stop-color:#000000"
           d="m 263.94727,36.519531 a 147.99233,147.99233 0 0 0 -147.99219,147.992189 147.99233,147.99233 0 0 0 0.95703,13.39844 c 5.74599,21.32753 13.95331,35.5307 23.23242,46.13867 A 137.30915,137.30915 0 0 1 124.44727,180.98438 137.30915,137.30915 0 0 1 261.75781,43.673828 137.30915,137.30915 0 0 1 399.06641,180.98438 137.30915,137.30915 0 0 1 348.17383,287.37695 c 15.60037,-6.3032 38.16506,-23.1263 51.4375,-44.1875 A 147.99233,147.99233 0 0 0 411.93945,184.51172 147.99233,147.99233 0 0 0 263.94727,36.519531 Z m -12.00391,11.625 c -66.73115,6.665772 -97.75972,49.929153 -106.84375,84.072269 12.5411,-15.7269 27.13482,-27.33328 40.66016,-29.13086 2.47395,-27.131746 33.03662,-47.699868 66.18359,-54.941409 z m 78.32812,125.628909 c -1.64227,0.0126 -2.92812,0.13982 -3.89453,1.27539 -2.48726,25.52841 -13.91912,30.03005 -13.97265,32.26953 12.99311,-9.32925 16.86065,-24.44405 18.59375,-33.54492 -0.24921,-2.3e-4 -0.49196,-0.002 -0.72657,0 z m -143.54687,20.23242 a 112.23345,43.923095 10.626199 0 0 -45.04883,25.58008 112.23345,43.923095 10.626199 0 0 40.35547,44.09765 88.495038,34.632958 9.5621093 0 1 -10.70508,-20.73047 88.495038,34.632958 9.5621093 0 1 35.26758,-20.8457 c -9.15906,-6.93321 -17.11567,-16.58809 -19.86914,-28.10156 z m 142.77734,26.73633 c -3.92329,3.6463 -9.45555,6.78308 -18.22851,9.05078 -0.34684,3.12722 -0.25881,5.48313 0.0664,7.40039 a 88.495038,34.632958 9.5621093 0 1 34.51758,35.16016 88.495038,34.632958 9.5621093 0 1 -4.10351,7.91601 112.23345,43.923095 10.626199 0 0 20.53906,-19.29101 112.23345,43.923095 10.626199 0 0 -32.79102,-40.23633 z M 145.5918,272.72852 a 147.99233,147.99233 0 0 0 118.35547,59.77539 147.99233,147.99233 0 0 0 93.64648,-33.70118 l -37.24805,6.23633 a 137.30915,137.30915 0 0 1 -58.58789,13.25391 137.30915,137.30915 0 0 1 -92.58789,-36.20508 z"
           transform="scale(0.26458333)" />
        <path
           id="path232120"
           style="font-variation-settings:normal;fill:#62c1a6;fill-opacity:1;stroke:none;stroke-width:11.3124;stroke-linecap:butt;stroke-linejoin:miter;stroke-miterlimit:4;stroke-dasharray:none;stroke-dashoffset:0;stroke-opacity:1;stop-color:#000000"
           d="m 271.65625,82.376953 c -13.40003,-0.335716 -28.82994,24.009967 -32.82617,49.300777 -0.24779,1.56825 -0.33446,2.82893 -0.29688,3.83204 -23.55427,14.56498 -25.29297,38.46484 -25.29297,38.46484 0,0 -12.67221,6.04231 -12.76562,21.70117 -0.0898,16.2225 28.2207,30.34766 28.2207,30.34766 -12.52538,10.77652 -17.21028,17.07818 -26.60937,26.86328 21.03185,21.56675 81.8525,33.80827 114.62109,12.53906 -2.30374,-10.66627 -7.868,-25.19018 -14.06445,-35.60742 0,0 17.52708,-7.7002 21.76562,-31.60352 -4.29716,8.22037 -11.20898,12.71094 -11.20898,12.71094 l -13.07227,1.05078 c -24.52639,14.59111 -57.32359,10.05194 -71.34375,3.72266 l 9.00977,-11.17774 c 17.24244,6.31053 13.76742,3.87137 19.68945,10.94336 14.85946,0.86725 26.8724,-1.6525 37.24414,-7.46875 -1.40956,-18.17621 8.03647,-42.02172 17.02735,-48.46484 l 8.55468,4.61719 c -3.16097,-6.05795 -7.74963,-11.7946 -13.28711,-16.82422 6.85422,-1.71514 16.54328,-5.73803 24.42383,-15.19141 18.49458,-22.18585 47.93754,-10.78374 45.55274,-4.52734 -11.45155,30.04425 -37.5053,24.10402 -39.74414,29.56055 0,0 22.09917,0.99996 32.18945,-8.02344 19.96363,-17.85324 15.97252,-35.25217 3.68945,-37.875 -10.65032,-2.2741 -26.02407,-2.0283 -60.5332,12.89648 -18.01064,7.78946 -37.06352,5.60936 -39.14063,5.3418 -4.11211,-0.9183 -8.20907,-1.38067 -12.18164,-1.31445 8.21432,-12.85429 -6.0518,-26.00496 2.89063,-34.19141 v -0.0039 c 10.38759,-9.509794 13.91602,5.803745 27.19726,10.75391 -1.54989,1.81441 -5.19207,2.01201 -7.8789,1.58984 -0.95505,3.63132 -2.56946,12.18057 -10.65039,15.22266 3.73776,0.34851 20.17402,0.0319 25.60742,-14.59375 10.39567,3.16356 28.00937,6.58027 40.23047,-0.11133 9.69146,-5.30652 6.89668,-10.736845 -2.87695,-9.998049 C 287.92745,100.4797 295.16116,82.965299 271.65625,82.376959 Z M 234.5293,156.16992 c 0.57302,-0.006 1.14372,0.0426 1.70312,0.14649 3.58821,0.6676 9.84231,4.5541 9.10352,12.375 -0.57375,6.07675 -2.53284,9.60141 -4.32032,10.65234 -1.78521,1.05093 -0.98544,-0.40906 -7.92382,-0.6875 -4.0351,-0.16099 -8.90405,-5.14222 -8.52344,-11.32227 0.45672,-7.40197 5.29527,-11.11256 9.96094,-11.16406 z m 39.11328,9.57813 c 3.06663,-0.002 5.77341,0.68464 7.58984,1.29297 8.29827,2.7803 8.19384,13.18878 2.39453,18.70507 -5.38377,5.11947 -14.44422,5.49053 -20.54883,2.23243 -7.20177,-3.84556 -7.30594,-2.28773 -8.03124,-4.66602 -0.72757,-2.37627 0.87594,-7.40545 6.11914,-12.51953 3.9977,-3.9012 8.53375,-5.04192 12.47656,-5.04492 z m -39.82031,17.74804 c 4.44932,-0.0441 8.70066,0.86232 12.17382,2.65625 -3.23004,2.87749 -13.28502,-0.63625 -16.60937,11.70118 -2.57725,-3.18671 -4.20012,-9.19738 -1.69922,-13.70313 2.04988,-0.41799 4.11296,-0.6343 6.13477,-0.6543 z m -124.01563,11.58008 c -7.37537,5.63618 -11.84724,12.17372 -13.222656,19.32813 -6.278411,34.7283 60.001366,75.73548 148.041016,91.59375 88.04011,15.85871 164.50163,0.56161 170.7832,-34.16602 1.60109,-8.91696 -1.61768,-18.59633 -9.45117,-28.39648 l -12.07226,19.9375 c -0.045,0.46708 -0.11242,0.93946 -0.17969,1.40429 -5.79269,30.50797 -73.68144,43.24798 -151.63867,28.45704 -77.95949,-14.79162 -136.46632,-51.51541 -130.67969,-82.0254 0.43115,-1.7493 0.52441,-1.70341 1.38672,-3.36132 -0.82413,-3.17458 -1.97971,-8.13033 -2.96485,-12.77149 z"
           transform="scale(0.26458333)" />
      </g>
    </g>
    <g
       inkscape:groupmode="layer"
       id="layer11"
       inkscape:label="bunny - complex"
       style="display:inline">
      <g
         id="g6021">
        <path
           id="circle140701-7"
           style="font-variation-settings:normal;fill:#ffebd8;fill-opacity:1;stroke:none;stroke-width:17.508;stroke-linecap:butt;stroke-linejoin:miter;stroke-miterlimit:4;stroke-dasharray:none;stroke-dashoffset:0;stroke-opacity:1;stop-color:#000000"
           d="m 263.94727,36.519531 a 147.83179,147.83179 0 0 0 -147.83204,147.832029 147.83179,147.83179 0 0 0 9.62891,51.41016 c 2.92964,3.6266 6.69773,7.54026 11.67969,11.66211 10.0929,8.3505 25.93241,16.1721 45.10937,22.83594 l 6.34766,1.10351 a 88.399058,34.595392 9.5621092 0 1 -18.31445,-26.03906 88.399058,34.595392 9.5621092 0 1 42.50195,-21.58984 c -0.28946,-0.21629 -0.59806,-0.45036 -0.94922,-0.72657 -8.21337,-6.46021 -18.15316,-15.58435 -18.07226,-29.18164 0.003,-0.4923 0.0395,-0.95141 0.0586,-1.42773 a 126.22915,49.400369 10.626199 0 0 -67.0332,30.11133 126.22915,49.400369 10.626199 0 0 -0.0117,2.72851 142.62271,142.62275 0 0 1 -7.0293,-43.53516 142.62271,142.62275 0 0 1 142.62305,-142.623042 142.62271,142.62275 0 0 1 142.62304,142.623042 142.62271,142.62275 0 0 1 -30.16015,87.69532 126.22915,49.400369 10.626199 0 0 0.084,-0.33594 126.22915,49.400369 10.626199 0 0 -42.33203,-48.14062 c -0.45657,0.60811 -0.89998,1.27325 -1.36328,1.84179 -3.67301,4.50735 -7.40748,7.4319 -10.66016,9.82422 2.74146,5.42363 5.28353,11.14269 7.40821,16.7832 a 88.399058,34.595392 9.5621092 0 1 16.65429,25.32227 88.399058,34.595392 9.5621092 0 1 -17.48242,16.13476 c 6.45576,-0.33739 12.77619,-0.87415 18.89844,-1.63671 13.55103,-1.68786 25.70376,-8.18051 33.8418,-13.54493 A 147.83179,147.83179 0 0 0 411.7793,184.35156 147.83179,147.83179 0 0 0 263.94727,36.519531 Z M 250.22461,44.5 c -67.91918,6.784649 -99.50045,50.817308 -108.74609,85.56836 12.76426,-16.00696 27.61679,-27.81896 41.38281,-29.64844 2.5179,-27.614588 33.6261,-48.549713 67.36328,-55.91992 z m 64.74414,105.72266 c -5.95935,8.68657 -12.37037,22.55538 -12.19141,41.86914 1.49376,-0.19949 1.73053,-25.26797 15.48633,-36.13086 2.55163,0.0818 8.09087,2.62258 9.94531,3.5625 -1.47367,-1.80191 -9.67738,-7.67875 -13.24023,-9.30078 z m -75.59375,8.01172 c -4.45676,0.0485 -9.07619,3.59035 -9.51172,10.6621 v 0.002 c -0.36453,5.90366 4.28594,10.66037 8.14063,10.81445 6.62744,0.26513 5.86112,1.65788 7.5664,0.6543 1.70509,-1.00365 3.57896,-4.36948 4.12696,-10.17383 0.70552,-7.47022 -5.26794,-11.18121 -8.69532,-11.81836 -0.5343,-0.0993 -1.07963,-0.14658 -1.62695,-0.14062 z m 39.5918,10.24609 c -3.5611,0.003 -7.65664,1.03112 -11.26758,4.55469 -4.73381,4.61892 -6.18238,9.16194 -5.52734,11.30859 0.655,2.1461 0.74953,0.73963 7.2539,4.21289 5.5135,2.94422 13.69807,2.61003 18.56055,-2.01367 5.23901,-4.98204 5.33317,-14.3864 -2.16211,-16.89649 -1.64057,-0.54931 -4.08768,-1.16813 -6.85742,-1.16601 z m -39.03711,15.71289 c -1.74641,0.0172 -3.52824,0.20529 -5.29883,0.56641 -2.15821,3.89077 -0.75935,9.08004 1.4668,11.83203 2.87071,-10.65375 11.55457,-7.621 14.34375,-10.10547 -2.99911,-1.54882 -6.66963,-2.33088 -10.51172,-2.29297 z m 69.85351,20.03906 c -12.70087,10.03598 -27.62324,14.56736 -47.32226,13.41797 -6.19772,-7.4013 -0.6817,-2.08094 -18.72852,-8.68359 l -7.84375,7.21093 c 16.25946,7.34069 52.22907,10.32605 78.23242,-11.6289 z m -155.00195,79.45703 a 147.83179,147.83179 0 0 0 109.16602,48.49414 147.83179,147.83179 0 0 0 60.32421,-13.19531 131.67331,51.530971 9.5621092 0 1 -28.92968,1.26953 142.62271,142.62275 0 0 1 -32.6875,4.06836 142.62271,142.62275 0 0 1 -83.72266,-28.04297 131.67331,51.530971 9.5621092 0 1 -24.15039,-12.59375 z"
           transform="scale(0.26458333)" />
        <path
           id="path140711-7"
           style="font-variation-settings:normal;fill:#62c1a6;fill-opacity:1;stroke:none;stroke-width:17.508;stroke-linecap:butt;stroke-linejoin:miter;stroke-miterlimit:4;stroke-dasharray:none;stroke-dashoffset:0;stroke-opacity:1;stop-color:#000000"
           d="m 283.01758,78.720703 c -13.71997,-0.343842 -30.26987,25.987447 -34.36133,51.882817 -0.005,0.0289 -0.007,0.0553 -0.0117,0.084 -30.37981,14.58946 -32.48437,43.54102 -32.48437,43.54102 0,0 -13.26373,6.3232 -13.36133,22.71093 -0.10099,16.9777 29.53515,31.75977 29.53515,31.75977 -13.10894,11.27776 -18.01085,17.8766 -27.84765,28.11719 4.10359,4.20776 7.73149,7.3531 14.26953,10.71875 7.0585,-13.64351 15.64198,-24.90349 24.47656,-35.45118 4.53476,0.85162 10.06304,1.61372 13.95703,1.00586 -14.6988,-3.54619 -42.14172,-19.28454 -44.61523,-35.96875 -2.70341,-18.23504 10.03515,-21.0625 10.03516,-21.0625 0,0 5.06532,-22.75681 19.21093,-32.97265 4.35969,-3.14856 8.02217,-3.51044 11.91211,-6.03321 34.18404,-19.21255 15.57472,-47.356915 27.84766,-49.443355 24.47166,-4.160428 34.73343,14.987795 53.06445,15.394535 -7.08767,6.08621 -30.29432,7.30009 -37.54687,6.16015 0,0 -0.53906,8.09988 -5.00391,13.32227 3.99857,-1.55877 10.25851,-5.91061 11.70703,-9.07031 10.06491,1.33413 34.12316,0.89123 46.36524,-6.4336 11.33993,-6.78507 7.16526,-14.011424 -2.82813,-13.087889 -18.12477,1.674074 -40.25338,-14.571156 -64.32031,-15.173828 z m 41.73437,50.689457 c -22.26695,0.27787 -39.40625,16.03711 -39.40625,16.03711 0,0 15.26244,-9.19215 45.0586,-6.51563 20.07108,1.80317 27.3169,15.3616 42.09179,17.63867 -10.37583,7.01987 -21.94364,2.26346 -28.57031,6.12305 0,0 24.91192,11.67219 46.55274,-3.5918 10.02296,-7.06953 6.33084,-14.59694 -2.50196,-13.63672 -16.01996,1.74426 -32.43424,-10.86503 -53.40234,-15.13476 -3.35521,-0.6833 -6.64127,-0.95962 -9.82227,-0.91992 z m 0.56836,39.27929 c -8.94012,10.90223 -8.7897,24.65415 -8.19336,32.79883 1.69821,-0.45217 3.00023,-0.78219 3.64453,-2.13867 -3.69536,-22.31086 5.0184,-28.74291 4.54883,-30.66016 z m 11.42969,17.3418 c -0.33264,1.76671 -0.72955,3.6661 -1.20312,5.70703 -3.48217,15.00669 -12.34961,20.76758 -12.34961,20.76758 l -11.13282,0.89258 c -7.25836,9.86639 -23.0957,20.27539 -23.0957,20.27539 8.13896,5.60663 16.2715,15.09355 22.17969,23.76758 3.85227,5.6985 9.34348,18.31648 10.81054,22.28906 2.01803,-1.00365 3.96716,-2.09929 5.82422,-3.30469 -2.41086,-11.16292 -11.57169,-32.85163 -18.05664,-43.7539 0,0 26.12714,-11.83062 27.02344,-46.64063 z m -226.93359,11.57031 c -7.37525,5.63632 -11.847143,12.17206 -13.22266,19.32617 -6.278317,34.72878 60.00107,75.73736 148.04102,91.59571 88.04027,15.85852 164.50162,0.56387 170.7832,-34.16602 1.60191,-8.9168 -1.6189,-18.59621 -9.45117,-28.39648 l -12.07227,19.93554 c -0.0438,0.47181 -0.11058,0.9396 -0.18164,1.4043 -5.79269,30.50812 -73.68114,43.24816 -151.63867,28.45703 -77.95946,-14.79183 -136.46648,-51.51533 -130.67969,-82.02539 0.43075,-1.75102 0.52318,-1.70465 1.38477,-3.36133 -0.82312,-3.17402 -1.97711,-8.12853 -2.96289,-12.76953 z"
           transform="scale(0.26458333)" />
      </g>
    </g>
  </g>
</svg>
